<?xml version="1.0" encoding="UTF-8"?>
<!DOCTYPE svg PUBLIC "-//W3C//DTD SVG 1.1//EN" "http://www.w3.org/Graphics/SVG/1.1/DTD/svg11.dtd">
<svg xmlns="http://www.w3.org/2000/svg" version="1.1" width="256px" height="250px" style="shape-rendering:geometricPrecision; text-rendering:geometricPrecision; image-rendering:optimizeQuality; fill-rule:evenodd; clip-rule:evenodd" xmlns:xlink="http://www.w3.org/1999/xlink">
<g><path style="opacity:1" fill="#e9e9ea" d="M -0.5,-0.5 C 84.8333,-0.5 170.167,-0.5 255.5,-0.5C 255.5,82.8333 255.5,166.167 255.5,249.5C 170.167,249.5 84.8333,249.5 -0.5,249.5C -0.5,166.167 -0.5,82.8333 -0.5,-0.5 Z"/></g>
<g><path style="opacity:1" fill="#b574bb" d="M 34.5,10.5 C 43.175,10.6562 51.8417,10.9895 60.5,11.5C 61.5,12.1667 62.5,12.8333 63.5,13.5C 53.8517,12.7549 44.1851,12.4216 34.5,12.5C 34.5,11.8333 34.5,11.1667 34.5,10.5 Z"/></g>
<g><path style="opacity:1" fill="#ac8ecf" d="M 60.5,11.5 C 72.175,12.0422 83.8416,12.7089 95.5,13.5C 105.323,14.5455 115.323,15.2121 125.5,15.5C 126.5,15.5 127.5,15.5 128.5,15.5C 128.167,16.5 127.5,17.1667 126.5,17.5C 111.359,15.8766 96.0255,14.8766 80.5,14.5C 75.0247,13.5111 69.358,13.1778 63.5,13.5C 62.5,12.8333 61.5,12.1667 60.5,11.5 Z"/></g>
<g><path style="opacity:1" fill="#836299" d="M 34.5,12.5 C 44.1851,12.4216 53.8517,12.7549 63.5,13.5C 69.358,13.1778 75.0247,13.5111 80.5,14.5C 74.8333,14.5 69.1667,14.5 63.5,14.5C 54.1064,14.1779 44.7731,14.1779 35.5,14.5C 34.7025,14.0431 34.3691,13.3764 34.5,12.5 Z"/></g>
<g><path style="opacity:1" fill="#c1bdd5" d="M 95.5,13.5 C 105.717,13.175 115.717,13.8416 125.5,15.5C 115.323,15.2121 105.323,14.5455 95.5,13.5 Z"/></g>
<g><path style="opacity:1" fill="#6f67a3" d="M 63.5,14.5 C 69.1667,14.5 74.8333,14.5 80.5,14.5C 96.0255,14.8766 111.359,15.8766 126.5,17.5C 125.609,18.1098 124.609,18.4431 123.5,18.5C 103.315,17.6668 83.3153,16.3335 63.5,14.5 Z"/></g>
<g><path style="opacity:1" fill="#c6bfe5" d="M 34.5,10.5 C 34.5,11.1667 34.5,11.8333 34.5,12.5C 34.3691,13.3764 34.7025,14.0431 35.5,14.5C 44.7731,14.1779 54.1064,14.1779 63.5,14.5C 83.3153,16.3335 103.315,17.6668 123.5,18.5C 122.833,19.5 122.167,20.5 121.5,21.5C 120.662,21.8417 120.328,22.5084 120.5,23.5C 120.167,23.5 119.833,23.5 119.5,23.5C 96.5058,22.0782 73.5058,20.7448 50.5,19.5C 44.3337,18.6024 38.0003,17.9357 31.5,17.5C 32.8953,15.3074 33.8953,12.9741 34.5,10.5 Z"/></g>
<g><path style="opacity:1" fill="#f398c5" d="M 128.5,15.5 C 137.721,15.7923 146.721,16.7923 155.5,18.5C 153.833,18.5 152.167,18.5 150.5,18.5C 147.465,18.5393 144.798,19.5393 142.5,21.5C 135.5,21.5 128.5,21.5 121.5,21.5C 122.167,20.5 122.833,19.5 123.5,18.5C 124.609,18.4431 125.609,18.1098 126.5,17.5C 127.5,17.1667 128.167,16.5 128.5,15.5 Z"/></g>
<g><path style="opacity:1" fill="#e38ed6" d="M 22.5,18.5 C 25.2869,17.5233 28.2869,17.19 31.5,17.5C 38.0003,17.9357 44.3337,18.6024 50.5,19.5C 41.1594,19.3328 31.826,18.9995 22.5,18.5 Z"/></g>
<g><path style="opacity:1" fill="#ec81d7" d="M 50.5,19.5 C 73.5058,20.7448 96.5058,22.0782 119.5,23.5C 119.5,24.1667 119.5,24.8333 119.5,25.5C 119.167,25.5 118.833,25.5 118.5,25.5C 118.167,25.5 117.833,25.5 117.5,25.5C 96.5555,23.6198 75.5555,22.1198 54.5,21C 52.9419,20.79 51.6085,20.29 50.5,19.5 Z"/></g>
<g><path style="opacity:1" fill="#528b96" d="M 21.5,21.5 C 21.5,22.1667 21.5,22.8333 21.5,23.5C 18.1194,23.4595 14.7861,23.7929 11.5,24.5C 8.9172,23.9085 8.9172,23.2418 11.5,22.5C 14.7831,21.673 18.1165,21.3396 21.5,21.5 Z"/></g>
<g><path style="opacity:1" fill="#dfe2e4" d="M 21.5,23.5 C 21.5,25.1667 21.5,26.8333 21.5,28.5C 16.9677,28.8182 12.6344,28.4849 8.5,27.5C 9.09982,26.1001 10.0998,25.1001 11.5,24.5C 14.7861,23.7929 18.1194,23.4595 21.5,23.5 Z"/></g>
<g><path style="opacity:1" fill="#493445" d="M 148.5,23.5 C 146.973,23.427 145.973,24.0937 145.5,25.5C 144.5,25.5 143.5,25.5 142.5,25.5C 144.508,23.7324 146.674,22.0657 149,20.5C 149.47,21.5768 149.303,22.5768 148.5,23.5 Z"/></g>
<g><path style="opacity:1" fill="#c6c1ea" d="M 151.5,21.5 C 159.69,22.4294 166.69,25.7627 172.5,31.5C 173.059,33.6792 173.726,35.8458 174.5,38C 173.264,39.8556 173.264,41.6889 174.5,43.5C 173.807,44.5178 173.141,45.5178 172.5,46.5C 166.743,35.418 157.743,28.418 145.5,25.5C 145.973,24.0937 146.973,23.427 148.5,23.5C 149.778,23.2178 150.778,22.5511 151.5,21.5 Z"/></g>
<g><path style="opacity:1" fill="#7cb9ca" d="M 21.5,18.5 C 21.5,19.5 21.5,20.5 21.5,21.5C 18.1165,21.3396 14.7831,21.673 11.5,22.5C 8.9172,23.2418 8.9172,23.9085 11.5,24.5C 10.0998,25.1001 9.09982,26.1001 8.5,27.5C 6.58533,27.2155 4.91866,27.5489 3.5,28.5C 2.40168,27.3991 2.23502,26.0657 3,24.5C 8.61505,20.95 14.7817,18.95 21.5,18.5 Z"/></g>
<g><path style="opacity:1" fill="#aa4f93" d="M 22.5,24.5 C 26.2768,25.9792 30.2768,26.8125 34.5,27C 35.2524,27.6708 35.5858,28.5041 35.5,29.5C 33.6381,27.5252 31.6381,27.1919 29.5,28.5C 27.1667,28.5 24.8333,28.5 22.5,28.5C 22.5,27.1667 22.5,25.8333 22.5,24.5 Z"/></g>
<g><path style="opacity:1" fill="#f074a5" d="M 121.5,21.5 C 128.5,21.5 135.5,21.5 142.5,21.5C 140.936,25.6163 140.27,29.9496 140.5,34.5C 141.285,48.156 141.618,61.8227 141.5,75.5C 141.316,82.858 141.65,90.1913 142.5,97.5C 142.564,99.3893 142.064,101.056 141,102.5C 140.23,99.7938 139.063,97.2938 137.5,95C 135.762,85.8825 132.429,77.5492 127.5,70C 125.892,69.342 124.725,69.842 124,71.5C 123.617,70.944 123.117,70.6107 122.5,70.5C 122.802,67.9407 122.468,65.6074 121.5,63.5C 121.795,61.2646 121.461,59.2646 120.5,57.5C 120.5,54.5 120.5,51.5 120.5,48.5C 120.5,48.1667 120.5,47.8333 120.5,47.5C 120.5,39.5 120.5,31.5 120.5,23.5C 120.328,22.5084 120.662,21.8417 121.5,21.5 Z"/></g>
<g><path style="opacity:1" fill="#8e7ba8" d="M 21.5,18.5 C 21.8333,18.5 22.1667,18.5 22.5,18.5C 22.5,18.8333 22.5,19.1667 22.5,19.5C 22.5,21.1667 22.5,22.8333 22.5,24.5C 22.5,25.8333 22.5,27.1667 22.5,28.5C 24.8333,28.5 27.1667,28.5 29.5,28.5C 29.5,28.8333 29.5,29.1667 29.5,29.5C 26.6146,29.8064 23.9479,29.4731 21.5,28.5C 21.5,26.8333 21.5,25.1667 21.5,23.5C 21.5,22.8333 21.5,22.1667 21.5,21.5C 21.5,20.5 21.5,19.5 21.5,18.5 Z"/></g>
<g><path style="opacity:1" fill="#303146" d="M 35.5,29.5 C 35.5,30.8333 35.5,32.1667 35.5,33.5C 33.5487,34.6414 31.5487,34.6414 29.5,33.5C 29.5,33.1667 29.5,32.8333 29.5,32.5C 30.5,32.5 31.5,32.5 32.5,32.5C 32.5,31.5 32.5,30.5 32.5,29.5C 31.5,29.5 30.5,29.5 29.5,29.5C 29.5,29.1667 29.5,28.8333 29.5,28.5C 31.6381,27.1919 33.6381,27.5252 35.5,29.5 Z"/></g>
<g><path style="opacity:1" fill="#c95eb4" d="M 22.5,19.5 C 31.1717,19.8447 39.8384,20.3447 48.5,21C 52.5116,22.8033 52.1782,23.8033 47.5,24C 49.7148,25.0438 52.0481,25.7105 54.5,26C 55.1667,26.6667 55.8333,27.3333 56.5,28C 64.5204,30.3483 72.5204,32.6816 80.5,35C 89.8861,39.7086 99.8861,42.5419 110.5,43.5C 112.429,43.4604 114.262,43.1271 116,42.5C 116.795,36.5732 117.295,30.9066 117.5,25.5C 117.833,25.5 118.167,25.5 118.5,25.5C 118.81,31.7576 118.476,37.9242 117.5,44C 100.084,43.9894 82.7503,42.656 65.5,40C 64.2341,39.6905 63.0674,39.1905 62,38.5C 61.6667,38.8333 61.3333,39.1667 61,39.5C 53.1964,38.8326 45.3631,37.9993 37.5,37C 36.1772,36.1841 35.5106,35.0174 35.5,33.5C 35.5,32.1667 35.5,30.8333 35.5,29.5C 35.5858,28.5041 35.2524,27.6708 34.5,27C 30.2768,26.8125 26.2768,25.9792 22.5,24.5C 22.5,22.8333 22.5,21.1667 22.5,19.5 Z"/></g>
<g><path style="opacity:1" fill="#5688c4" d="M 8.5,27.5 C 12.6344,28.4849 16.9677,28.8182 21.5,28.5C 23.9479,29.4731 26.6146,29.8064 29.5,29.5C 30.5,29.5 31.5,29.5 32.5,29.5C 32.5,30.5 32.5,31.5 32.5,32.5C 31.5,32.5 30.5,32.5 29.5,32.5C 27.1667,32.5 24.8333,32.5 22.5,32.5C 18.8183,32.6653 15.1516,32.4986 11.5,32C 8.40062,31.6126 5.73396,30.4459 3.5,28.5C 4.91866,27.5489 6.58533,27.2155 8.5,27.5 Z"/></g>
<g><path style="opacity:1" fill="#d663bf" d="M 22.5,19.5 C 22.5,19.1667 22.5,18.8333 22.5,18.5C 31.826,18.9995 41.1594,19.3328 50.5,19.5C 51.6085,20.29 52.9419,20.79 54.5,21C 75.5555,22.1198 96.5555,23.6198 117.5,25.5C 117.295,30.9066 116.795,36.5732 116,42.5C 114.262,43.1271 112.429,43.4604 110.5,43.5C 99.8861,42.5419 89.8861,39.7086 80.5,35C 72.5204,32.6816 64.5204,30.3483 56.5,28C 55.8333,27.3333 55.1667,26.6667 54.5,26C 52.0481,25.7105 49.7148,25.0438 47.5,24C 52.1782,23.8033 52.5116,22.8033 48.5,21C 39.8384,20.3447 31.1717,19.8447 22.5,19.5 Z"/></g>
<g><path style="opacity:1" fill="#e079cd" d="M 150.5,19.5 C 150.5,19.1667 150.5,18.8333 150.5,18.5C 152.167,18.5 153.833,18.5 155.5,18.5C 164.989,19.1614 172.822,23.1614 179,30.5C 180.705,32.5766 181.872,34.91 182.5,37.5C 182.657,38.8734 182.49,40.2068 182,41.5C 175.756,28.091 165.256,20.7576 150.5,19.5 Z"/></g>
<g><path style="opacity:1" fill="#b35ea4" d="M 150.5,19.5 C 165.256,20.7576 175.756,28.091 182,41.5C 182.49,40.2068 182.657,38.8734 182.5,37.5C 184.794,40.3695 186.128,43.7029 186.5,47.5C 186.5,53.1667 186.5,58.8333 186.5,64.5C 185.833,62.1667 185.167,59.8333 184.5,57.5C 184.672,56.5084 184.338,55.8417 183.5,55.5C 183.58,52.2186 182.913,49.2186 181.5,46.5C 179.772,40.707 176.772,35.707 172.5,31.5C 166.69,25.7627 159.69,22.4294 151.5,21.5C 151.167,20.8333 150.833,20.1667 150.5,19.5 Z"/></g>
<g><path style="opacity:1" fill="#6dd6e8" d="M 233.5,35.5 C 228.26,34.5509 222.927,34.2175 217.5,34.5C 217.281,33.325 217.614,32.325 218.5,31.5C 222.902,30.0739 227.235,30.2406 231.5,32C 232.823,32.8159 233.489,33.9826 233.5,35.5 Z"/></g>
<g><path style="opacity:1" fill="#ba5bad" d="M 118.5,25.5 C 118.833,25.5 119.167,25.5 119.5,25.5C 119.5,32.5 119.5,39.5 119.5,46.5C 105.491,45.5447 91.4914,44.3781 77.5,43C 70.1667,42.3333 62.8333,42.3333 55.5,43C 54.0705,46.3892 52.9039,49.8892 52,53.5C 48.9999,56.0226 46.4999,58.356 44.5,60.5C 43.2519,59.9598 42.0852,59.2931 41,58.5C 38.7108,53.8067 36.8774,49.1401 35.5,44.5C 33.5,43.1667 31.5,43.1667 29.5,44.5C 27.5,44.5 25.5,44.5 23.5,44.5C 23.5,40.8333 23.5,37.1667 23.5,33.5C 25.5,33.5 27.5,33.5 29.5,33.5C 31.5487,34.6414 33.5487,34.6414 35.5,33.5C 35.5106,35.0174 36.1772,36.1841 37.5,37C 45.3631,37.9993 53.1964,38.8326 61,39.5C 61.3333,39.1667 61.6667,38.8333 62,38.5C 63.0674,39.1905 64.2341,39.6905 65.5,40C 82.7503,42.656 100.084,43.9894 117.5,44C 118.476,37.9242 118.81,31.7576 118.5,25.5 Z"/></g>
<g><path style="opacity:1" fill="#865c8f" d="M 22.5,32.5 C 24.8333,32.5 27.1667,32.5 29.5,32.5C 29.5,32.8333 29.5,33.1667 29.5,33.5C 27.5,33.5 25.5,33.5 23.5,33.5C 23.5,37.1667 23.5,40.8333 23.5,44.5C 25.5,44.5 27.5,44.5 29.5,44.5C 29.5,44.8333 29.5,45.1667 29.5,45.5C 27.1667,45.5 24.8333,45.5 22.5,45.5C 22.5,45.1667 22.5,44.8333 22.5,44.5C 22.5,42.8333 22.5,41.1667 22.5,39.5C 22.5,38.1667 22.5,36.8333 22.5,35.5C 22.5,34.5 22.5,33.5 22.5,32.5 Z"/></g>
<g><path style="opacity:1" fill="#68b7e1" d="M 217.5,34.5 C 222.927,34.2175 228.26,34.5509 233.5,35.5C 234.403,38.3915 234.736,41.3915 234.5,44.5C 234.167,44.5 233.833,44.5 233.5,44.5C 233.808,42.076 233.474,39.7427 232.5,37.5C 228.333,39.7757 224,40.4424 219.5,39.5C 217.97,39.6399 216.97,40.3065 216.5,41.5C 216.5,42.8333 216.5,44.1667 216.5,45.5C 216.167,45.5 215.833,45.5 215.5,45.5C 215.335,42.1501 215.502,38.8168 216,35.5C 216.383,34.944 216.883,34.6107 217.5,34.5 Z"/></g>
<g><path style="opacity:1" fill="#3e6c72" d="M 21.5,35.5 C 21.8333,35.5 22.1667,35.5 22.5,35.5C 22.5,36.8333 22.5,38.1667 22.5,39.5C 18.7657,39.3227 15.0991,39.6561 11.5,40.5C 10.448,40.6495 9.44802,40.4828 8.5,40C 12.6813,37.7739 17.0146,36.2739 21.5,35.5 Z"/></g>
<g><path style="opacity:1" fill="#78aab7" d="M 21.5,35.5 C 17.0146,36.2739 12.6813,37.7739 8.5,40C 9.44802,40.4828 10.448,40.6495 11.5,40.5C 10.4489,41.2223 9.78219,42.2223 9.5,43.5C 7.58533,43.2155 5.91866,43.5489 4.5,44.5C 3.0313,41.8976 3.69796,39.731 6.5,38C 11.3249,36.1053 16.3249,35.272 21.5,35.5 Z"/></g>
<g><path style="opacity:1" fill="#5195d0" d="M 233.5,44.5 C 233.167,44.5 232.833,44.5 232.5,44.5C 230.051,41.1822 227.218,40.8488 224,43.5C 221.447,42.8917 218.947,42.225 216.5,41.5C 216.97,40.3065 217.97,39.6399 219.5,39.5C 224,40.4424 228.333,39.7757 232.5,37.5C 233.474,39.7427 233.808,42.076 233.5,44.5 Z"/></g>
<g><path style="opacity:1" fill="#e1e3e4" d="M 22.5,39.5 C 22.5,41.1667 22.5,42.8333 22.5,44.5C 18.1018,44.7059 13.7685,44.3726 9.5,43.5C 9.78219,42.2223 10.4489,41.2223 11.5,40.5C 15.0991,39.6561 18.7657,39.3227 22.5,39.5 Z"/></g>
<g><path style="opacity:1" fill="#5389d9" d="M 216.5,41.5 C 218.947,42.225 221.447,42.8917 224,43.5C 227.218,40.8488 230.051,41.1822 232.5,44.5C 227.36,45.4881 222.026,45.8214 216.5,45.5C 216.5,44.1667 216.5,42.8333 216.5,41.5 Z"/></g>
<g><path style="opacity:1" fill="#2f3045" d="M 35.5,44.5 C 36.8333,46.5 36.8333,48.5 35.5,50.5C 33.2188,50.9227 31.5521,50.256 30.5,48.5C 31.5,48.5 32.5,48.5 33.5,48.5C 33.5,47.5 33.5,46.5 33.5,45.5C 32.1667,45.5 30.8333,45.5 29.5,45.5C 29.5,45.1667 29.5,44.8333 29.5,44.5C 31.5,43.1667 33.5,43.1667 35.5,44.5 Z"/></g>
<g><path style="opacity:1" fill="#88558b" d="M 84.5,46.5 C 75.4906,46.3744 66.4906,46.041 57.5,45.5C 57.5,47.1667 57.5,48.8333 57.5,50.5C 57.5,52.5 57.5,54.5 57.5,56.5C 57.5,58.8333 57.5,61.1667 57.5,63.5C 56.5104,57.69 56.1771,51.69 56.5,45.5C 57.6936,44.2227 59.3603,43.5561 61.5,43.5C 69.3585,44.1481 77.0252,45.1481 84.5,46.5 Z"/></g>
<g><path style="opacity:1" fill="#6b92bd" d="M 9.5,43.5 C 13.7685,44.3726 18.1018,44.7059 22.5,44.5C 22.5,44.8333 22.5,45.1667 22.5,45.5C 19.0217,45.1842 15.6883,45.6842 12.5,47C 16.0382,47.5348 19.3716,48.3681 22.5,49.5C 18.1033,49.5754 13.77,49.0754 9.5,48C 7.4156,47.3028 5.74894,46.1361 4.5,44.5C 5.91866,43.5489 7.58533,43.2155 9.5,43.5 Z"/></g>
<g><path style="opacity:1" fill="#5782bf" d="M 22.5,45.5 C 24.8333,45.5 27.1667,45.5 29.5,45.5C 30.8333,45.5 32.1667,45.5 33.5,45.5C 33.5,46.5 33.5,47.5 33.5,48.5C 32.5,48.5 31.5,48.5 30.5,48.5C 28.1667,48.5 25.8333,48.5 23.5,48.5C 23.5,49.5 23.5,50.5 23.5,51.5C 23.1667,51.5 22.8333,51.5 22.5,51.5C 22.5,50.8333 22.5,50.1667 22.5,49.5C 19.3716,48.3681 16.0382,47.5348 12.5,47C 15.6883,45.6842 19.0217,45.1842 22.5,45.5 Z"/></g>
<g><path style="opacity:1" fill="#856192" d="M 84.5,46.5 C 96.5024,46.7633 108.502,47.0966 120.5,47.5C 120.5,47.8333 120.5,48.1667 120.5,48.5C 116.833,48.5 113.167,48.5 109.5,48.5C 100.998,48.0868 92.6645,47.4202 84.5,46.5 Z"/></g>
<g><path style="opacity:1" fill="#b872c9" d="M 232.5,44.5 C 232.833,44.5 233.167,44.5 233.5,44.5C 233.833,44.5 234.167,44.5 234.5,44.5C 234.5,45.5 234.5,46.5 234.5,47.5C 228.6,49.6424 222.6,49.9758 216.5,48.5C 216.5,47.5 216.5,46.5 216.5,45.5C 222.026,45.8214 227.36,45.4881 232.5,44.5 Z"/></g>
<g><path style="opacity:1" fill="#50c3c9" d="M 84.5,46.5 C 92.6645,47.4202 100.998,48.0868 109.5,48.5C 112.625,49.4794 115.958,49.8128 119.5,49.5C 120.421,54.7445 118.254,56.7445 113,55.5C 102.499,54.1334 91.9994,52.8001 81.5,51.5C 81.719,52.675 81.3857,53.675 80.5,54.5C 74.9782,53.4572 69.4782,52.4572 64,51.5C 63.6667,51.8333 63.3333,52.1667 63,52.5C 61.1852,51.7556 59.3519,51.0889 57.5,50.5C 57.5,48.8333 57.5,47.1667 57.5,45.5C 66.4906,46.041 75.4906,46.3744 84.5,46.5 Z"/></g>
<g><path style="opacity:1" fill="#ae5aa9" d="M 119.5,23.5 C 119.833,23.5 120.167,23.5 120.5,23.5C 120.5,31.5 120.5,39.5 120.5,47.5C 108.502,47.0966 96.5024,46.7633 84.5,46.5C 77.0252,45.1481 69.3585,44.1481 61.5,43.5C 59.3603,43.5561 57.6936,44.2227 56.5,45.5C 55.6715,52.3213 55.1715,59.3213 55,66.5C 54,70.1667 51.6667,72.5 48,73.5C 44.1046,72.3995 40.2712,71.0662 36.5,69.5C 35.6143,68.675 35.281,67.675 35.5,66.5C 38.2624,63.8518 37.9291,61.5185 34.5,59.5C 32.2603,58.7356 29.9269,57.9023 27.5,57C 26.1667,55.3333 26.1667,53.6667 27.5,52C 30.3647,51.8171 33.0314,51.3171 35.5,50.5C 36.8333,48.5 36.8333,46.5 35.5,44.5C 36.8774,49.1401 38.7108,53.8067 41,58.5C 42.0852,59.2931 43.2519,59.9598 44.5,60.5C 46.4999,58.356 48.9999,56.0226 52,53.5C 52.9039,49.8892 54.0705,46.3892 55.5,43C 62.8333,42.3333 70.1667,42.3333 77.5,43C 91.4914,44.3781 105.491,45.5447 119.5,46.5C 119.5,39.5 119.5,32.5 119.5,25.5C 119.5,24.8333 119.5,24.1667 119.5,23.5 Z"/></g>
<g><path style="opacity:1" fill="#d16cce" d="M 142.5,25.5 C 143.5,25.5 144.5,25.5 145.5,25.5C 157.743,28.418 166.743,35.418 172.5,46.5C 173.038,48.1172 173.371,49.7839 173.5,51.5C 173.5,53.1667 173.5,54.8333 173.5,56.5C 172.944,61.161 172.11,65.8277 171,70.5C 170.167,69 169,67.8333 167.5,67C 162.24,66.0822 157.073,64.9156 152,63.5C 151.82,65.4884 151.986,67.4884 152.5,69.5C 149.708,69.5479 147.875,68.2146 147,65.5C 146.517,66.448 146.351,67.448 146.5,68.5C 145.833,68.5 145.167,68.5 144.5,68.5C 144.251,60.6498 143.584,52.9832 142.5,45.5C 141.798,38.6587 141.798,31.9921 142.5,25.5 Z"/></g>
<g><path style="opacity:1" fill="#e06ace" d="M 142.5,26.5 C 151.524,28.3792 158.858,32.8792 164.5,40C 165.448,40.4828 166.448,40.6495 167.5,40.5C 167.785,42.288 167.452,43.9547 166.5,45.5C 164.817,44.4079 162.984,43.7413 161,43.5C 155.296,44.9906 150.629,43.3239 147,38.5C 146.667,39.5 146.333,40.5 146,41.5C 143.49,36.8053 142.323,31.8053 142.5,26.5 Z"/></g>
<g><path style="opacity:1" fill="#985295" d="M 30.5,48.5 C 31.5521,50.256 33.2188,50.9227 35.5,50.5C 33.0314,51.3171 30.3647,51.8171 27.5,52C 26.1667,53.6667 26.1667,55.3333 27.5,57C 29.9269,57.9023 32.2603,58.7356 34.5,59.5C 33.209,59.2627 32.209,59.596 31.5,60.5C 28.8333,60.5 26.1667,60.5 23.5,60.5C 23.5,58.5 23.5,56.5 23.5,54.5C 23.5,53.5 23.5,52.5 23.5,51.5C 23.5,50.5 23.5,49.5 23.5,48.5C 25.8333,48.5 28.1667,48.5 30.5,48.5 Z"/></g>
<g><path style="opacity:1" fill="#2d5458" d="M 22.5,51.5 C 22.8333,51.5 23.1667,51.5 23.5,51.5C 23.5,52.5 23.5,53.5 23.5,54.5C 21.901,54.2322 20.5676,54.5655 19.5,55.5C 17.139,55.6741 14.8056,56.0074 12.5,56.5C 11.325,56.719 10.325,56.3857 9.5,55.5C 11.3596,54.6751 13.0262,53.6751 14.5,52.5C 16.9479,51.5269 19.6146,51.1936 22.5,51.5 Z"/></g>
<g><path style="opacity:1" fill="#4eb8c8" d="M 109.5,48.5 C 113.167,48.5 116.833,48.5 120.5,48.5C 120.5,51.5 120.5,54.5 120.5,57.5C 119.551,60.9404 117.218,62.2738 113.5,61.5C 102.753,60.4889 92.086,59.3223 81.5,58C 82.8172,59.7672 84.4839,61.1005 86.5,62C 77.2068,61.0961 67.8735,59.9294 58.5,58.5C 58.6716,57.5084 58.3382,56.8417 57.5,56.5C 57.5,54.5 57.5,52.5 57.5,50.5C 59.3519,51.0889 61.1852,51.7556 63,52.5C 63.3333,52.1667 63.6667,51.8333 64,51.5C 69.4782,52.4572 74.9782,53.4572 80.5,54.5C 81.3857,53.675 81.719,52.675 81.5,51.5C 91.9994,52.8001 102.499,54.1334 113,55.5C 118.254,56.7445 120.421,54.7445 119.5,49.5C 115.958,49.8128 112.625,49.4794 109.5,48.5 Z"/></g>
<g><path style="opacity:1" fill="#739ba9" d="M 14.5,52.5 C 13.0262,53.6751 11.3596,54.6751 9.5,55.5C 10.325,56.3857 11.325,56.719 12.5,56.5C 11.0998,57.1001 10.0998,58.1001 9.5,59.5C 7.99877,58.5573 6.66543,58.8906 5.5,60.5C 4.11343,58.5112 4.44677,56.6779 6.5,55C 8.90879,53.2932 11.5755,52.4598 14.5,52.5 Z"/></g>
<g><path style="opacity:1" fill="#e0e3e5" d="M 19.5,55.5 C 20.5,55.5 21.5,55.5 22.5,55.5C 22.5,57.1667 22.5,58.8333 22.5,60.5C 20.1667,60.5 17.8333,60.5 15.5,60.5C 13.3792,60.6747 11.3792,60.3414 9.5,59.5C 10.0998,58.1001 11.0998,57.1001 12.5,56.5C 14.8056,56.0074 17.139,55.6741 19.5,55.5 Z"/></g>
<g><path style="opacity:1" fill="#4eadc9" d="M 120.5,57.5 C 121.461,59.2646 121.795,61.2646 121.5,63.5C 121.5,65.5 121.5,67.5 121.5,69.5C 120.849,68.9094 120.182,68.2427 119.5,67.5C 109.638,68.2084 99.8045,67.5417 90,65.5C 88.7171,67.287 86.3838,68.287 83,68.5C 75.1808,67.2401 67.3475,66.0734 59.5,65C 58.5769,62.9592 58.2436,60.7925 58.5,58.5C 67.8735,59.9294 77.2068,61.0961 86.5,62C 84.4839,61.1005 82.8172,59.7672 81.5,58C 92.086,59.3223 102.753,60.4889 113.5,61.5C 117.218,62.2738 119.551,60.9404 120.5,57.5 Z"/></g>
<g><path style="opacity:1" fill="#757bc7" d="M 234.5,44.5 C 235.486,48.97 235.819,53.6367 235.5,58.5C 233.973,58.427 232.973,59.0937 232.5,60.5C 230.833,60.5 229.167,60.5 227.5,60.5C 223.731,60.756 220.064,60.4227 216.5,59.5C 216.737,58.209 216.404,57.209 215.5,56.5C 215.5,52.8333 215.5,49.1667 215.5,45.5C 215.833,45.5 216.167,45.5 216.5,45.5C 216.5,46.5 216.5,47.5 216.5,48.5C 216.5,49.8333 216.5,51.1667 216.5,52.5C 222.137,54.0392 227.637,53.7059 233,51.5C 233.333,52.1667 233.667,52.8333 234,53.5C 234.495,51.5273 234.662,49.5273 234.5,47.5C 234.5,46.5 234.5,45.5 234.5,44.5 Z"/></g>
<g><path style="opacity:1" fill="#9b6dbf" d="M 234.5,47.5 C 234.662,49.5273 234.495,51.5273 234,53.5C 233.667,52.8333 233.333,52.1667 233,51.5C 227.637,53.7059 222.137,54.0392 216.5,52.5C 216.5,51.1667 216.5,49.8333 216.5,48.5C 222.6,49.9758 228.6,49.6424 234.5,47.5 Z"/></g>
<g><path style="opacity:1" fill="#9dafc5" d="M 19.5,55.5 C 20.5676,54.5655 21.901,54.2322 23.5,54.5C 23.5,56.5 23.5,58.5 23.5,60.5C 20.8333,61.8333 18.1667,61.8333 15.5,60.5C 17.8333,60.5 20.1667,60.5 22.5,60.5C 22.5,58.8333 22.5,57.1667 22.5,55.5C 21.5,55.5 20.5,55.5 19.5,55.5 Z"/></g>
<g><path style="opacity:1" fill="#2f3045" d="M 34.5,59.5 C 37.9291,61.5185 38.2624,63.8518 35.5,66.5C 33.847,66.3404 32.5137,65.6737 31.5,64.5C 36.7455,63.1272 36.7455,61.7939 31.5,60.5C 32.209,59.596 33.209,59.2627 34.5,59.5 Z"/></g>
<g><path style="opacity:1" fill="#c49ec7" d="M 186.5,47.5 C 188.581,66.6321 189.914,85.9654 190.5,105.5C 190.167,105.5 189.833,105.5 189.5,105.5C 188.845,91.6585 187.845,77.9918 186.5,64.5C 186.5,58.8333 186.5,53.1667 186.5,47.5 Z"/></g>
<g><path style="opacity:1" fill="#527fb9" d="M 9.5,59.5 C 11.3792,60.3414 13.3792,60.6747 15.5,60.5C 18.1667,61.8333 20.8333,61.8333 23.5,60.5C 26.1667,60.5 28.8333,60.5 31.5,60.5C 36.7455,61.7939 36.7455,63.1272 31.5,64.5C 29.1667,64.5 26.8333,64.5 24.5,64.5C 22.5,64.5 20.5,64.5 18.5,64.5C 14.7802,64.4358 11.1135,63.9358 7.5,63C 6.61947,62.2917 5.9528,61.4584 5.5,60.5C 6.66543,58.8906 7.99877,58.5573 9.5,59.5 Z"/></g>
<g><path style="opacity:1" fill="#a75799" d="M 142.5,45.5 C 143.584,52.9832 144.251,60.6498 144.5,68.5C 144.5,70.1667 144.5,71.8333 144.5,73.5C 144.5,76.8333 144.5,80.1667 144.5,83.5C 143.109,71.0251 142.442,58.3584 142.5,45.5 Z"/></g>
<g><path style="opacity:1" fill="#a1aecc" d="M 18.5,64.5 C 20.5,64.5 22.5,64.5 24.5,64.5C 24.5,65.5 24.5,66.5 24.5,67.5C 24.1667,67.5 23.8333,67.5 23.5,67.5C 22.1979,65.9724 20.5313,64.9724 18.5,64.5 Z"/></g>
<g><path style="opacity:1" fill="#4c9fc6" d="M 57.5,56.5 C 58.3382,56.8417 58.6716,57.5084 58.5,58.5C 58.2436,60.7925 58.5769,62.9592 59.5,65C 67.3475,66.0734 75.1808,67.2401 83,68.5C 86.3838,68.287 88.7171,67.287 90,65.5C 99.8045,67.5417 109.638,68.2084 119.5,67.5C 120.182,68.2427 120.849,68.9094 121.5,69.5C 122.077,72.5497 120.91,74.5497 118,75.5C 108.208,74.4598 98.3748,73.4598 88.5,72.5C 87.7379,73.6283 87.0712,74.7949 86.5,76C 84.7281,75.3248 82.8948,75.4914 81,76.5C 73.5012,74.8742 66.0012,73.2075 58.5,71.5C 58.7845,69.5853 58.4511,67.9187 57.5,66.5C 57.5,65.5 57.5,64.5 57.5,63.5C 57.5,61.1667 57.5,58.8333 57.5,56.5 Z"/></g>
<g><path style="opacity:1" fill="#325659" d="M 23.5,67.5 C 23.8333,67.5 24.1667,67.5 24.5,67.5C 24.5,68.8333 24.5,70.1667 24.5,71.5C 21.0977,71.3424 17.7644,71.6758 14.5,72.5C 13.0222,72.762 11.6888,72.4287 10.5,71.5C 12.3596,70.6751 14.0262,69.6751 15.5,68.5C 18.0545,67.612 20.7212,67.2786 23.5,67.5 Z"/></g>
<g><path style="opacity:1" fill="#c06ccc" d="M 173.5,56.5 C 173.986,64.1585 174.32,71.8252 174.5,79.5C 174.853,81.6348 174.02,82.9681 172,83.5C 164.526,82.2911 157.359,80.2911 150.5,77.5C 150.66,79.1992 150.494,80.8659 150,82.5C 146.922,78.4057 145.756,73.7391 146.5,68.5C 146.351,67.448 146.517,66.448 147,65.5C 147.875,68.2146 149.708,69.5479 152.5,69.5C 151.986,67.4884 151.82,65.4884 152,63.5C 157.073,64.9156 162.24,66.0822 167.5,67C 169,67.8333 170.167,69 171,70.5C 172.11,65.8277 172.944,61.161 173.5,56.5 Z"/></g>
<g><path style="opacity:1" fill="#6f96a2" d="M 15.5,68.5 C 14.0262,69.6751 12.3596,70.6751 10.5,71.5C 11.6888,72.4287 13.0222,72.762 14.5,72.5C 12.7809,73.0221 11.4475,74.0221 10.5,75.5C 8.82124,75.2852 7.82124,75.9519 7.5,77.5C 5.62313,76.3409 5.12313,74.6742 6,72.5C 8.65099,69.924 11.8177,68.5907 15.5,68.5 Z"/></g>
<g><path style="opacity:1" fill="#dbdee1" d="M 24.5,71.5 C 24.5,73.1667 24.5,74.8333 24.5,76.5C 19.6367,76.8195 14.97,76.4861 10.5,75.5C 11.4475,74.0221 12.7809,73.0221 14.5,72.5C 17.7644,71.6758 21.0977,71.3424 24.5,71.5 Z"/></g>
<g><path style="opacity:1" fill="#b880c2" d="M 173.5,51.5 C 174.222,51.9175 174.722,52.5842 175,53.5C 175.556,59.8349 176.056,66.1682 176.5,72.5C 176.5,83.8333 176.5,95.1667 176.5,106.5C 175.539,104.735 175.205,102.735 175.5,100.5C 175.825,93.3134 175.491,86.3134 174.5,79.5C 174.32,71.8252 173.986,64.1585 173.5,56.5C 173.5,54.8333 173.5,53.1667 173.5,51.5 Z"/></g>
<g><path style="opacity:1" fill="#63d5d9" d="M 227.5,60.5 C 229.167,60.5 230.833,60.5 232.5,60.5C 232.5,65.5 232.5,70.5 232.5,75.5C 231.894,78.1673 231.061,80.834 230,83.5C 229.667,82.1667 229.333,80.8333 229,79.5C 228.683,81.3008 228.016,81.6341 227,80.5C 226.333,83.1667 225.667,83.1667 225,80.5C 224.667,81.1667 224.333,81.8333 224,82.5C 223.61,79.8958 222.776,77.5625 221.5,75.5C 220.446,70.8935 219.779,66.2268 219.5,61.5C 222.385,61.8064 225.052,61.4731 227.5,60.5 Z"/></g>
<g><path style="opacity:1" fill="#4b92c6" d="M 121.5,63.5 C 122.468,65.6074 122.802,67.9407 122.5,70.5C 122.5,73.5 122.5,76.5 122.5,79.5C 122.5,80.1667 122.5,80.8333 122.5,81.5C 119.538,83.1962 116.538,83.8628 113.5,83.5C 105.982,82.2705 98.4818,81.2705 91,80.5C 89.9326,81.1905 88.7659,81.6905 87.5,82C 90.0635,82.763 90.0635,83.263 87.5,83.5C 78.2025,82.8004 68.8691,81.8004 59.5,80.5C 59.7845,78.5853 59.4511,76.9187 58.5,75.5C 58.5,74.1667 58.5,72.8333 58.5,71.5C 66.0012,73.2075 73.5012,74.8742 81,76.5C 82.8948,75.4914 84.7281,75.3248 86.5,76C 87.0712,74.7949 87.7379,73.6283 88.5,72.5C 98.3748,73.4598 108.208,74.4598 118,75.5C 120.91,74.5497 122.077,72.5497 121.5,69.5C 121.5,67.5 121.5,65.5 121.5,63.5 Z"/></g>
<g><path style="opacity:1" fill="#60b5b9" d="M 235.5,58.5 C 236.639,68.651 237.306,78.9843 237.5,89.5C 236.653,86.1835 235.486,82.8502 234,79.5C 233.502,82.8168 233.335,86.1501 233.5,89.5C 232.514,85.03 232.181,80.3633 232.5,75.5C 232.5,70.5 232.5,65.5 232.5,60.5C 232.973,59.0937 233.973,58.427 235.5,58.5 Z"/></g>
<g><path style="opacity:1" fill="#4fb1be" d="M 216.5,59.5 C 220.064,60.4227 223.731,60.756 227.5,60.5C 225.052,61.4731 222.385,61.8064 219.5,61.5C 219.779,66.2268 220.446,70.8935 221.5,75.5C 222.563,84.8024 223.23,94.1357 223.5,103.5C 222.417,103.539 221.417,103.873 220.5,104.5C 219.52,107.086 219.187,109.753 219.5,112.5C 218.334,105.023 217.667,97.3568 217.5,89.5C 217.25,79.4966 216.916,69.4966 216.5,59.5 Z"/></g>
<g><path style="opacity:1" fill="#312d41" d="M 37.5,82.5 C 34.9899,82.9465 32.9899,82.2798 31.5,80.5C 37.4953,79.8848 37.8286,78.5515 32.5,76.5C 37.577,75.2553 39.2437,77.2553 37.5,82.5 Z"/></g>
<g><path style="opacity:1" fill="#527eb5" d="M 10.5,75.5 C 14.97,76.4861 19.6367,76.8195 24.5,76.5C 27.1667,76.5 29.8333,76.5 32.5,76.5C 37.8286,78.5515 37.4953,79.8848 31.5,80.5C 29.0504,80.298 26.717,80.6314 24.5,81.5C 20.6877,80.6762 16.6877,80.1762 12.5,80C 10.5087,79.6264 8.84203,78.793 7.5,77.5C 7.82124,75.9519 8.82124,75.2852 10.5,75.5 Z"/></g>
<g><path style="opacity:1" fill="#8e559c" d="M 31.5,80.5 C 32.9899,82.2798 34.9899,82.9465 37.5,82.5C 36.6851,83.8366 35.5185,84.8366 34,85.5C 33.2568,87.8739 33.7568,89.8739 35.5,91.5C 34.391,91.5569 33.391,91.8902 32.5,92.5C 30.1667,92.5 27.8333,92.5 25.5,92.5C 25.5,90.5 25.5,88.5 25.5,86.5C 25.7373,85.209 25.404,84.209 24.5,83.5C 24.5,82.8333 24.5,82.1667 24.5,81.5C 26.717,80.6314 29.0504,80.298 31.5,80.5 Z"/></g>
<g><path style="opacity:1" fill="#6e5b92" d="M 57.5,66.5 C 58.4511,67.9187 58.7845,69.5853 58.5,71.5C 58.5,72.8333 58.5,74.1667 58.5,75.5C 58.5401,80.1925 58.8734,84.8592 59.5,89.5C 59.5,90.5 59.5,91.5 59.5,92.5C 58.1045,88.4091 57.4379,84.0758 57.5,79.5C 57.5,75.1667 57.5,70.8333 57.5,66.5 Z"/></g>
<g><path style="opacity:1" fill="#4985c6" d="M 58.5,75.5 C 59.4511,76.9187 59.7845,78.5853 59.5,80.5C 68.8691,81.8004 78.2025,82.8004 87.5,83.5C 90.0635,83.263 90.0635,82.763 87.5,82C 88.7659,81.6905 89.9326,81.1905 91,80.5C 98.4818,81.2705 105.982,82.2705 113.5,83.5C 116.538,83.8628 119.538,83.1962 122.5,81.5C 122.657,82.8734 122.49,84.2068 122,85.5C 121.667,85.1667 121.333,84.8333 121,84.5C 116.92,85.3002 112.753,85.8002 108.5,86C 109.706,87.0177 109.373,87.5177 107.5,87.5C 106.446,87.3201 105.446,86.9867 104.5,86.5C 103.784,87.311 102.95,87.9777 102,88.5C 98.0988,87.935 93.9322,87.2684 89.5,86.5C 89.67,87.8221 89.3366,88.9887 88.5,90C 79.6918,90.5525 71.0251,89.7191 62.5,87.5C 61.4822,88.1925 60.4822,88.8592 59.5,89.5C 58.8734,84.8592 58.5401,80.1925 58.5,75.5 Z"/></g>
<g><path style="opacity:1" fill="#af5981" d="M 150.5,18.5 C 150.5,18.8333 150.5,19.1667 150.5,19.5C 150.833,20.1667 151.167,20.8333 151.5,21.5C 150.778,22.5511 149.778,23.2178 148.5,23.5C 149.303,22.5768 149.47,21.5768 149,20.5C 146.674,22.0657 144.508,23.7324 142.5,25.5C 141.798,31.9921 141.798,38.6587 142.5,45.5C 142.442,58.3584 143.109,71.0251 144.5,83.5C 144.5,84.5 144.5,85.5 144.5,86.5C 145.167,100.833 145.833,115.167 146.5,129.5C 146.5,133.167 146.5,136.833 146.5,140.5C 144.594,118.86 142.927,97.1929 141.5,75.5C 141.618,61.8227 141.285,48.156 140.5,34.5C 140.27,29.9496 140.936,25.6163 142.5,21.5C 144.798,19.5393 147.465,18.5393 150.5,18.5 Z"/></g>
<g><path style="opacity:1" fill="#b46dcc" d="M 144.5,68.5 C 145.167,68.5 145.833,68.5 146.5,68.5C 145.756,73.7391 146.922,78.4057 150,82.5C 150.494,80.8659 150.66,79.1992 150.5,77.5C 157.359,80.2911 164.526,82.2911 172,83.5C 174.02,82.9681 174.853,81.6348 174.5,79.5C 175.491,86.3134 175.825,93.3134 175.5,100.5C 171.103,97.6945 166.437,96.3612 161.5,96.5C 154.321,95.1699 149.488,91.1699 147,84.5C 146.667,84.8333 146.333,85.1667 146,85.5C 145.824,81.3123 145.324,77.3123 144.5,73.5C 144.5,71.8333 144.5,70.1667 144.5,68.5 Z"/></g>
<g><path style="opacity:1" fill="#bdd0d3" d="M 215.5,56.5 C 216.404,57.209 216.737,58.209 216.5,59.5C 216.916,69.4966 217.25,79.4966 217.5,89.5C 215.942,78.7055 215.275,67.7055 215.5,56.5 Z"/></g>
<g><path style="opacity:1" fill="#3b6166" d="M 24.5,83.5 C 25.404,84.209 25.7373,85.209 25.5,86.5C 23.901,86.2322 22.5676,86.5655 21.5,87.5C 17.9601,87.7526 14.6267,88.4192 11.5,89.5C 10.6236,89.6309 9.95689,89.2975 9.5,88.5C 10.1925,87.4822 10.8592,86.4822 11.5,85.5C 15.6737,83.936 20.007,83.2694 24.5,83.5 Z"/></g>
<g><path style="opacity:1" fill="#7a9eb3" d="M 11.5,85.5 C 10.8592,86.4822 10.1925,87.4822 9.5,88.5C 9.95689,89.2975 10.6236,89.6309 11.5,89.5C 11.7822,90.7777 12.4489,91.7777 13.5,92.5C 11.5853,92.2155 9.91866,92.5489 8.5,93.5C 5.4814,89.7177 6.4814,87.051 11.5,85.5 Z"/></g>
<g><path style="opacity:1" fill="#dbdfe0" d="M 21.5,87.5 C 22.5,87.5 23.5,87.5 24.5,87.5C 24.5,89.1667 24.5,90.8333 24.5,92.5C 22.5,92.5 20.5,92.5 18.5,92.5C 16.8333,92.5 15.1667,92.5 13.5,92.5C 12.4489,91.7777 11.7822,90.7777 11.5,89.5C 14.6267,88.4192 17.9601,87.7526 21.5,87.5 Z"/></g>
<g><path style="opacity:1" fill="#9c5cab" d="M 56.5,45.5 C 56.1771,51.69 56.5104,57.69 57.5,63.5C 57.5,64.5 57.5,65.5 57.5,66.5C 57.5,70.8333 57.5,75.1667 57.5,79.5C 56.8401,80.964 56.5068,82.6307 56.5,84.5C 56.9634,89.1706 57.4634,93.8372 58,98.5C 59.0736,99.6184 60.2402,100.618 61.5,101.5C 58.137,101.485 54.8036,101.485 51.5,101.5C 49.1288,99.971 46.6288,98.6377 44,97.5C 42.2357,97.9885 40.7357,97.9885 39.5,97.5C 39.3775,94.7079 38.0442,92.7079 35.5,91.5C 33.7568,89.8739 33.2568,87.8739 34,85.5C 35.5185,84.8366 36.6851,83.8366 37.5,82.5C 39.2437,77.2553 37.577,75.2553 32.5,76.5C 29.8333,76.5 27.1667,76.5 24.5,76.5C 24.5,74.8333 24.5,73.1667 24.5,71.5C 24.5,70.1667 24.5,68.8333 24.5,67.5C 24.5,66.5 24.5,65.5 24.5,64.5C 26.8333,64.5 29.1667,64.5 31.5,64.5C 32.5137,65.6737 33.847,66.3404 35.5,66.5C 35.281,67.675 35.6143,68.675 36.5,69.5C 40.2712,71.0662 44.1046,72.3995 48,73.5C 51.6667,72.5 54,70.1667 55,66.5C 55.1715,59.3213 55.6715,52.3213 56.5,45.5 Z"/></g>
<g><path style="opacity:1" fill="#4a7bc5" d="M 122.5,79.5 C 123.489,84.9753 123.822,90.642 123.5,96.5C 104.536,94.8985 85.536,93.8985 66.5,93.5C 64.1667,93.5 61.8333,93.5 59.5,93.5C 59.5,93.1667 59.5,92.8333 59.5,92.5C 59.5,91.5 59.5,90.5 59.5,89.5C 60.4822,88.8592 61.4822,88.1925 62.5,87.5C 71.0251,89.7191 79.6918,90.5525 88.5,90C 89.3366,88.9887 89.67,87.8221 89.5,86.5C 93.9322,87.2684 98.0988,87.935 102,88.5C 102.95,87.9777 103.784,87.311 104.5,86.5C 105.446,86.9867 106.446,87.3201 107.5,87.5C 109.373,87.5177 109.706,87.0177 108.5,86C 112.753,85.8002 116.92,85.3002 121,84.5C 121.333,84.8333 121.667,85.1667 122,85.5C 122.49,84.2068 122.657,82.8734 122.5,81.5C 122.5,80.8333 122.5,80.1667 122.5,79.5 Z"/></g>
<g><path style="opacity:1" fill="#69c9da" d="M 221.5,75.5 C 222.776,77.5625 223.61,79.8958 224,82.5C 224.333,81.8333 224.667,81.1667 225,80.5C 225.667,83.1667 226.333,83.1667 227,80.5C 228.016,81.6341 228.683,81.3008 229,79.5C 229.333,80.8333 229.667,82.1667 230,83.5C 231.061,80.834 231.894,78.1673 232.5,75.5C 232.181,80.3633 232.514,85.03 233.5,89.5C 233.5,92.8333 233.5,96.1667 233.5,99.5C 232.365,102.338 231.365,105.338 230.5,108.5C 228.696,109.768 226.696,110.435 224.5,110.5C 224.784,108.585 224.451,106.919 223.5,105.5C 223.5,104.833 223.5,104.167 223.5,103.5C 223.23,94.1357 222.563,84.8024 221.5,75.5 Z"/></g>
<g><path style="opacity:1" fill="#9ea6b8" d="M 21.5,87.5 C 22.5676,86.5655 23.901,86.2322 25.5,86.5C 25.5,88.5 25.5,90.5 25.5,92.5C 23.1667,93.8333 20.8333,93.8333 18.5,92.5C 20.5,92.5 22.5,92.5 24.5,92.5C 24.5,90.8333 24.5,89.1667 24.5,87.5C 23.5,87.5 22.5,87.5 21.5,87.5 Z"/></g>
<g><path style="opacity:1" fill="#9664a3" d="M 184.5,57.5 C 185.167,59.8333 185.833,62.1667 186.5,64.5C 187.845,77.9918 188.845,91.6585 189.5,105.5C 189.5,110.5 189.5,115.5 189.5,120.5C 189.167,120.5 188.833,120.5 188.5,120.5C 186.957,99.5216 185.624,78.5216 184.5,57.5 Z"/></g>
<g><path style="opacity:1" fill="#5780b9" d="M 13.5,92.5 C 15.1667,92.5 16.8333,92.5 18.5,92.5C 20.8333,93.8333 23.1667,93.8333 25.5,92.5C 27.8333,92.5 30.1667,92.5 32.5,92.5C 37.7455,93.7939 37.7455,95.1272 32.5,96.5C 30.0504,96.298 27.717,96.6314 25.5,97.5C 22.1501,97.665 18.8168,97.4983 15.5,97C 12.7187,96.4782 10.3854,95.3115 8.5,93.5C 9.91866,92.5489 11.5853,92.2155 13.5,92.5 Z"/></g>
<g><path style="opacity:1" fill="#2e334c" d="M 35.5,91.5 C 38.0442,92.7079 39.3775,94.7079 39.5,97.5C 38.8333,97.5 38.5,97.8333 38.5,98.5C 35.9899,98.9465 33.9899,98.2798 32.5,96.5C 37.7455,95.1272 37.7455,93.7939 32.5,92.5C 33.391,91.8902 34.391,91.5569 35.5,91.5 Z"/></g>
<g><path style="opacity:1" fill="#5567b2" d="M 66.5,93.5 C 85.536,93.8985 104.536,94.8985 123.5,96.5C 123.5,96.8333 123.5,97.1667 123.5,97.5C 104.307,96.7718 85.3075,95.4385 66.5,93.5 Z"/></g>
<g><path style="opacity:1" fill="#805092" d="M 59.5,93.5 C 61.8333,93.5 64.1667,93.5 66.5,93.5C 85.3075,95.4385 104.307,96.7718 123.5,97.5C 123.646,101.519 123.979,105.519 124.5,109.5C 124.167,109.5 123.833,109.5 123.5,109.5C 123.737,108.209 123.404,107.209 122.5,106.5C 122.5,103.833 122.5,101.167 122.5,98.5C 101.834,97.7334 81.1669,96.9 60.5,96C 59.7476,95.3292 59.4142,94.4959 59.5,93.5 Z"/></g>
<g><path style="opacity:1" fill="#935ead" d="M 57.5,79.5 C 57.4379,84.0758 58.1045,88.4091 59.5,92.5C 59.5,92.8333 59.5,93.1667 59.5,93.5C 59.4142,94.4959 59.7476,95.3292 60.5,96C 81.1669,96.9 101.834,97.7334 122.5,98.5C 122.5,101.167 122.5,103.833 122.5,106.5C 122.663,108.857 122.497,111.19 122,113.5C 121.517,112.552 121.351,111.552 121.5,110.5C 122.304,103.806 119.304,100.972 112.5,102C 106.798,101.6 101.298,101.434 96,101.5C 89.8991,103.066 83.7324,104.4 77.5,105.5C 72.843,107.675 69.1763,111.009 66.5,115.5C 60.2847,112.208 53.618,110.041 46.5,109C 44.4075,106.172 42.2409,106.005 40,108.5C 39.3292,107.748 38.4959,107.414 37.5,107.5C 36.5,107.5 35.5,107.5 34.5,107.5C 30.7944,106.415 29.4611,104.082 30.5,100.5C 33.3056,99.8324 35.9723,99.1657 38.5,98.5C 38.5,97.8333 38.8333,97.5 39.5,97.5C 40.7357,97.9885 42.2357,97.9885 44,97.5C 46.6288,98.6377 49.1288,99.971 51.5,101.5C 54.8036,101.485 58.137,101.485 61.5,101.5C 60.2402,100.618 59.0736,99.6184 58,98.5C 57.4634,93.8372 56.9634,89.1706 56.5,84.5C 56.5068,82.6307 56.8401,80.964 57.5,79.5 Z"/></g>
<g><path style="opacity:1" fill="#79528f" d="M 32.5,96.5 C 33.9899,98.2798 35.9899,98.9465 38.5,98.5C 35.9723,99.1657 33.3056,99.8324 30.5,100.5C 29.4611,104.082 30.7944,106.415 34.5,107.5C 34.1667,108.167 33.8333,108.833 33.5,109.5C 31.1667,109.5 28.8333,109.5 26.5,109.5C 26.8016,106.941 26.4682,104.607 25.5,102.5C 25.5,101.5 25.5,100.5 25.5,99.5C 25.5,98.8333 25.5,98.1667 25.5,97.5C 27.717,96.6314 30.0504,96.298 32.5,96.5 Z"/></g>
<g><path style="opacity:1" fill="#877899" d="M 183.5,55.5 C 184.338,55.8417 184.672,56.5084 184.5,57.5C 185.624,78.5216 186.957,99.5216 188.5,120.5C 188.985,133.495 189.318,146.495 189.5,159.5C 187.079,125.008 185.079,90.3414 183.5,55.5 Z"/></g>
<g><path style="opacity:1" fill="#a7a3bb" d="M 172.5,31.5 C 176.772,35.707 179.772,40.707 181.5,46.5C 182.584,70.5333 183.418,94.5333 184,118.5C 184.333,118.167 184.667,117.833 185,117.5C 185.207,126.455 184.373,135.288 182.5,144C 183.473,147.926 183.473,151.926 182.5,156C 182.667,157.5 182.833,159 183,160.5C 183.763,157.937 184.263,157.937 184.5,160.5C 183.463,164.727 183.463,168.727 184.5,172.5C 185.098,173.795 185.598,175.128 186,176.5C 186.333,176.167 186.667,175.833 187,175.5C 189.051,187.077 189.885,198.744 189.5,210.5C 189.737,211.791 189.404,212.791 188.5,213.5C 187.044,218.293 184.377,222.293 180.5,225.5C 180.5,223.5 180.5,221.5 180.5,219.5C 180.5,218.833 180.5,218.167 180.5,217.5C 181.338,217.158 181.672,216.492 181.5,215.5C 183.007,211.609 183.674,207.442 183.5,203C 183.119,188.966 182.119,175.133 180.5,161.5C 180.5,159.833 180.5,158.167 180.5,156.5C 179.405,128.331 178.072,100.331 176.5,72.5C 176.056,66.1682 175.556,59.8349 175,53.5C 174.722,52.5842 174.222,51.9175 173.5,51.5C 173.371,49.7839 173.038,48.1172 172.5,46.5C 173.141,45.5178 173.807,44.5178 174.5,43.5C 173.264,41.6889 173.264,39.8556 174.5,38C 173.726,35.8458 173.059,33.6792 172.5,31.5 Z"/></g>
<g><path style="opacity:1" fill="#294d4f" d="M 25.5,99.5 C 25.5,100.5 25.5,101.5 25.5,102.5C 24.209,102.263 23.209,102.596 22.5,103.5C 20.0971,103.448 17.7638,103.781 15.5,104.5C 14.5,104.5 13.5,104.5 12.5,104.5C 12.5,103.5 12.5,102.5 12.5,101.5C 16.6737,99.936 21.007,99.2694 25.5,99.5 Z"/></g>
<g><path style="opacity:1" fill="#9864b9" d="M 121.5,110.5 C 121.045,113.857 119.212,116.19 116,117.5C 109.634,117.095 103.134,116.595 96.5,116C 92.2035,113.575 87.5368,112.408 82.5,112.5C 81.1152,109.972 79.4485,107.638 77.5,105.5C 83.7324,104.4 89.8991,103.066 96,101.5C 101.298,101.434 106.798,101.6 112.5,102C 119.304,100.972 122.304,103.806 121.5,110.5 Z"/></g>
<g><path style="opacity:1" fill="#bfd7de" d="M 238.5,95.5 C 239.689,104.312 240.355,113.312 240.5,122.5C 239.833,122.5 239.5,122.167 239.5,121.5C 238.917,112.845 238.584,104.178 238.5,95.5 Z"/></g>
<g><path style="opacity:1" fill="#e1e4e5" d="M 22.5,103.5 C 23.5,103.5 24.5,103.5 25.5,103.5C 25.5,105.167 25.5,106.833 25.5,108.5C 22.1667,108.5 18.8333,108.5 15.5,108.5C 14.8333,108.5 14.1667,108.5 13.5,108.5C 13.1961,107.85 12.8627,107.183 12.5,106.5C 13.6016,105.824 14.6016,105.158 15.5,104.5C 17.7638,103.781 20.0971,103.448 22.5,103.5 Z"/></g>
<g><path style="opacity:1" fill="#4f9eb1" d="M 237.5,89.5 C 237.325,91.6208 237.659,93.6208 238.5,95.5C 238.584,104.178 238.917,112.845 239.5,121.5C 238.549,120.081 238.216,118.415 238.5,116.5C 237.041,116.567 235.708,116.234 234.5,115.5C 234.608,110.13 234.275,104.797 233.5,99.5C 233.5,96.1667 233.5,92.8333 233.5,89.5C 233.335,86.1501 233.502,82.8168 234,79.5C 235.486,82.8502 236.653,86.1835 237.5,89.5 Z"/></g>
<g><path style="opacity:1" fill="#a386bf" d="M 176.5,72.5 C 178.072,100.331 179.405,128.331 180.5,156.5C 179.218,143.162 177.884,129.829 176.5,116.5C 176.5,113.167 176.5,109.833 176.5,106.5C 176.5,95.1667 176.5,83.8333 176.5,72.5 Z"/></g>
<g><path style="opacity:1" fill="#a56ecb" d="M 144.5,73.5 C 145.324,77.3123 145.824,81.3123 146,85.5C 146.333,85.1667 146.667,84.8333 147,84.5C 149.488,91.1699 154.321,95.1699 161.5,96.5C 166.437,96.3612 171.103,97.6945 175.5,100.5C 175.205,102.735 175.539,104.735 176.5,106.5C 176.5,109.833 176.5,113.167 176.5,116.5C 176.5,119.167 176.5,121.833 176.5,124.5C 174.171,125.749 172.338,125.082 171,122.5C 164.233,123.134 158.233,121.134 153,116.5C 152.374,118.713 152.541,120.88 153.5,123C 152.898,124.563 152.065,124.396 151,122.5C 147.998,111.267 145.831,99.2671 144.5,86.5C 144.5,85.5 144.5,84.5 144.5,83.5C 144.5,80.1667 144.5,76.8333 144.5,73.5 Z"/></g>
<g><path style="opacity:1" fill="#7398ae" d="M 12.5,101.5 C 12.5,102.5 12.5,103.5 12.5,104.5C 13.5,104.5 14.5,104.5 15.5,104.5C 14.6016,105.158 13.6016,105.824 12.5,106.5C 12.8627,107.183 13.1961,107.85 13.5,108.5C 11.901,108.232 10.5676,108.566 9.5,109.5C 6.4814,105.718 7.4814,103.051 12.5,101.5 Z"/></g>
<g><path style="opacity:1" fill="#97a5bf" d="M 22.5,103.5 C 23.209,102.596 24.209,102.263 25.5,102.5C 26.4682,104.607 26.8016,106.941 26.5,109.5C 22.6286,109.815 18.9619,109.482 15.5,108.5C 18.8333,108.5 22.1667,108.5 25.5,108.5C 25.5,106.833 25.5,105.167 25.5,103.5C 24.5,103.5 23.5,103.5 22.5,103.5 Z"/></g>
<g><path style="opacity:1" fill="#4f7fb8" d="M 13.5,108.5 C 14.1667,108.5 14.8333,108.5 15.5,108.5C 18.9619,109.482 22.6286,109.815 26.5,109.5C 28.8333,109.5 31.1667,109.5 33.5,109.5C 40.1667,110.5 40.1667,111.5 33.5,112.5C 31.1667,112.5 28.8333,112.5 26.5,112.5C 22.4862,112.666 18.4862,112.499 14.5,112C 12.3474,111.901 10.6808,111.067 9.5,109.5C 10.5676,108.566 11.901,108.232 13.5,108.5 Z"/></g>
<g><path style="opacity:1" fill="#292837" d="M 34.5,107.5 C 35.5,107.5 36.5,107.5 37.5,107.5C 39.3332,109.496 39.8332,111.829 39,114.5C 37.9887,115.337 36.8221,115.67 35.5,115.5C 34.8333,114.5 34.1667,113.5 33.5,112.5C 40.1667,111.5 40.1667,110.5 33.5,109.5C 33.8333,108.833 34.1667,108.167 34.5,107.5 Z"/></g>
<g><path style="opacity:1" fill="#9065ba" d="M 77.5,105.5 C 79.4485,107.638 81.1152,109.972 82.5,112.5C 87.5368,112.408 92.2035,113.575 96.5,116C 103.134,116.595 109.634,117.095 116,117.5C 119.212,116.19 121.045,113.857 121.5,110.5C 121.351,111.552 121.517,112.552 122,113.5C 122.497,111.19 122.663,108.857 122.5,106.5C 123.404,107.209 123.737,108.209 123.5,109.5C 123.5,115.167 123.5,120.833 123.5,126.5C 122.59,128.019 121.757,129.685 121,131.5C 120.667,129.167 120.333,126.833 120,124.5C 111.984,125.875 103.984,125.542 96,123.5C 94.9412,123.63 94.1079,124.13 93.5,125C 94.1667,126.333 94.8333,127.667 95.5,129C 94.8333,129.167 94.1667,129.333 93.5,129.5C 84.662,126.707 75.662,124.707 66.5,123.5C 66.9175,122.778 67.5842,122.278 68.5,122C 67.5941,119.92 66.9274,117.753 66.5,115.5C 69.1763,111.009 72.843,107.675 77.5,105.5 Z"/></g>
<g><path style="opacity:1" fill="#78579b" d="M 26.5,112.5 C 28.8333,112.5 31.1667,112.5 33.5,112.5C 34.1667,113.5 34.8333,114.5 35.5,115.5C 34.5,115.5 33.5,115.5 32.5,115.5C 32.33,116.822 32.6634,117.989 33.5,119C 36.1608,120.658 38.8275,122.324 41.5,124C 40.944,124.383 40.6107,124.883 40.5,125.5C 39.4062,124.418 38.0729,123.752 36.5,123.5C 35.2867,123.747 34.62,124.414 34.5,125.5C 32.1667,125.5 29.8333,125.5 27.5,125.5C 27.7947,123.265 27.4614,121.265 26.5,119.5C 26.5,118.167 26.5,116.833 26.5,115.5C 26.5,114.5 26.5,113.5 26.5,112.5 Z"/></g>
<g><path style="opacity:1" fill="#66b9d7" d="M 233.5,99.5 C 234.275,104.797 234.608,110.13 234.5,115.5C 234.5,118.833 234.5,122.167 234.5,125.5C 234.323,132.134 233.823,132.134 233,125.5C 232.667,126.833 232.333,128.167 232,129.5C 231.439,130.022 230.772,130.355 230,130.5C 228.699,128.845 227.199,127.511 225.5,126.5C 224.357,119.593 223.69,112.593 223.5,105.5C 224.451,106.919 224.784,108.585 224.5,110.5C 226.696,110.435 228.696,109.768 230.5,108.5C 231.365,105.338 232.365,102.338 233.5,99.5 Z"/></g>
<g><path style="opacity:1" fill="#2e5052" d="M 21.5,115.5 C 23.1667,115.5 24.8333,115.5 26.5,115.5C 26.5,116.833 26.5,118.167 26.5,119.5C 23.1194,119.46 19.7861,119.793 16.5,120.5C 15.0222,120.762 13.6888,120.429 12.5,119.5C 15.5917,118.145 18.5917,116.812 21.5,115.5 Z"/></g>
<g><path style="opacity:1" fill="#dde1e3" d="M 26.5,119.5 C 26.5,121.167 26.5,122.833 26.5,124.5C 23.1667,124.5 19.8333,124.5 16.5,124.5C 15.0413,124.567 13.7079,124.234 12.5,123.5C 13.4475,122.022 14.7809,121.022 16.5,120.5C 19.7861,119.793 23.1194,119.46 26.5,119.5 Z"/></g>
<g><path style="opacity:1" fill="#6a8c96" d="M 21.5,115.5 C 18.5917,116.812 15.5917,118.145 12.5,119.5C 13.6888,120.429 15.0222,120.762 16.5,120.5C 14.7809,121.022 13.4475,122.022 12.5,123.5C 11.8333,123.5 11.1667,123.5 10.5,123.5C 9.03187,121.389 9.3652,119.556 11.5,118C 14.7201,116.648 18.0534,115.814 21.5,115.5 Z"/></g>
<g><path style="opacity:1" fill="#8761b0" d="M 66.5,115.5 C 66.9274,117.753 67.5941,119.92 68.5,122C 67.5842,122.278 66.9175,122.778 66.5,123.5C 67.8714,125.259 68.8714,127.259 69.5,129.5C 72.7318,130.705 75.0652,132.205 76.5,134C 75.6667,134.833 74.8333,135.667 74,136.5C 72.951,134.893 71.451,134.227 69.5,134.5C 60.5608,132.679 52.0608,129.346 44,124.5C 42.8615,124.989 41.6948,125.322 40.5,125.5C 40.6107,124.883 40.944,124.383 41.5,124C 38.8275,122.324 36.1608,120.658 33.5,119C 32.6634,117.989 32.33,116.822 32.5,115.5C 33.5,115.5 34.5,115.5 35.5,115.5C 36.8221,115.67 37.9887,115.337 39,114.5C 39.8332,111.829 39.3332,109.496 37.5,107.5C 38.4959,107.414 39.3292,107.748 40,108.5C 42.2409,106.005 44.4075,106.172 46.5,109C 53.618,110.041 60.2847,112.208 66.5,115.5 Z"/></g>
<g><path style="opacity:1" fill="#e66f9d" d="M 141.5,75.5 C 142.927,97.1929 144.594,118.86 146.5,140.5C 146.666,145.511 146.499,150.511 146,155.5C 142.953,152.117 139.62,149.117 136,146.5C 133.032,148.631 130.199,150.964 127.5,153.5C 126.04,138.862 125.04,124.196 124.5,109.5C 123.979,105.519 123.646,101.519 123.5,97.5C 123.5,97.1667 123.5,96.8333 123.5,96.5C 123.822,90.642 123.489,84.9753 122.5,79.5C 122.5,76.5 122.5,73.5 122.5,70.5C 123.117,70.6107 123.617,70.944 124,71.5C 124.725,69.842 125.892,69.342 127.5,70C 132.429,77.5492 135.762,85.8825 137.5,95C 139.063,97.2938 140.23,99.7938 141,102.5C 142.064,101.056 142.564,99.3893 142.5,97.5C 141.65,90.1913 141.316,82.858 141.5,75.5 Z"/></g>
<g><path style="opacity:1" fill="#8ea4c3" d="M 26.5,119.5 C 27.4614,121.265 27.7947,123.265 27.5,125.5C 23.6286,125.815 19.9619,125.482 16.5,124.5C 19.8333,124.5 23.1667,124.5 26.5,124.5C 26.5,122.833 26.5,121.167 26.5,119.5 Z"/></g>
<g><path style="opacity:1" fill="#2b3348" d="M 40.5,125.5 C 40.7845,127.415 40.4511,129.081 39.5,130.5C 37.4471,130.598 35.7804,129.931 34.5,128.5C 38.31,127.246 38.31,126.246 34.5,125.5C 34.62,124.414 35.2867,123.747 36.5,123.5C 38.0729,123.752 39.4062,124.418 40.5,125.5 Z"/></g>
<g><path style="opacity:1" fill="#4894b6" d="M 223.5,103.5 C 223.5,104.167 223.5,104.833 223.5,105.5C 223.69,112.593 224.357,119.593 225.5,126.5C 225.5,131.167 225.5,135.833 225.5,140.5C 225.5,140.833 225.5,141.167 225.5,141.5C 224.442,140.4 223.608,139.066 223,137.5C 221.812,138.563 221.312,139.897 221.5,141.5C 221.167,141.5 220.833,141.5 220.5,141.5C 219.971,131.842 219.638,122.175 219.5,112.5C 219.187,109.753 219.52,107.086 220.5,104.5C 221.417,103.873 222.417,103.539 223.5,103.5 Z"/></g>
<g><path style="opacity:1" fill="#4e7db4" d="M 10.5,123.5 C 11.1667,123.5 11.8333,123.5 12.5,123.5C 13.7079,124.234 15.0413,124.567 16.5,124.5C 19.9619,125.482 23.6286,125.815 27.5,125.5C 29.8333,125.5 32.1667,125.5 34.5,125.5C 38.31,126.246 38.31,127.246 34.5,128.5C 32.1667,128.5 29.8333,128.5 27.5,128.5C 21.3429,129.081 15.5096,128.081 10,125.5C 9.30831,124.563 9.47498,123.897 10.5,123.5 Z"/></g>
<g><path style="opacity:1" fill="#916dc7" d="M 144.5,86.5 C 145.831,99.2671 147.998,111.267 151,122.5C 152.065,124.396 152.898,124.563 153.5,123C 152.541,120.88 152.374,118.713 153,116.5C 158.233,121.134 164.233,123.134 171,122.5C 172.338,125.082 174.171,125.749 176.5,124.5C 177.299,133.142 177.632,141.809 177.5,150.5C 176.163,149.685 175.163,148.518 174.5,147C 169.432,145.901 164.098,144.901 158.5,144C 157,142.833 155.5,141.667 154,140.5C 153.617,141.056 153.117,141.389 152.5,141.5C 151.732,142.263 151.232,143.263 151,144.5C 149.27,140.191 148.103,135.858 147.5,131.5C 147.672,130.508 147.338,129.842 146.5,129.5C 145.833,115.167 145.167,100.833 144.5,86.5 Z"/></g>
<g><path style="opacity:1" fill="#67afd7" d="M 234.5,125.5 C 235.489,130.975 235.822,136.642 235.5,142.5C 235.663,144.857 235.497,147.19 235,149.5C 233.434,148.939 232.101,149.606 231,151.5C 230.259,150.359 229.425,150.359 228.5,151.5C 227.828,150.051 227.161,148.718 226.5,147.5C 226.802,144.941 226.468,142.607 225.5,140.5C 225.5,135.833 225.5,131.167 225.5,126.5C 227.199,127.511 228.699,128.845 230,130.5C 230.772,130.355 231.439,130.022 232,129.5C 232.333,128.167 232.667,126.833 233,125.5C 233.823,132.134 234.323,132.134 234.5,125.5 Z"/></g>
<g><path style="opacity:1" fill="#695491" d="M 27.5,128.5 C 29.8333,128.5 32.1667,128.5 34.5,128.5C 35.7804,129.931 37.4471,130.598 39.5,130.5C 37.1578,131.008 34.9912,132.008 33,133.5C 32.3487,136.528 33.5154,138.528 36.5,139.5C 36.1667,140.167 35.8333,140.833 35.5,141.5C 33.1667,141.5 30.8333,141.5 28.5,141.5C 28.8016,138.941 28.4682,136.607 27.5,134.5C 27.5,133.5 27.5,132.5 27.5,131.5C 27.5,130.5 27.5,129.5 27.5,128.5 Z"/></g>
<g><path style="opacity:1" fill="#25484a" d="M 27.5,131.5 C 27.5,132.5 27.5,133.5 27.5,134.5C 25.5853,134.216 23.9187,134.549 22.5,135.5C 19.8333,135.833 17.1667,136.167 14.5,136.5C 13.9569,136.44 13.6236,136.107 13.5,135.5C 15.5939,134.482 17.5939,133.482 19.5,132.5C 21.9479,131.527 24.6146,131.194 27.5,131.5 Z"/></g>
<g><path style="opacity:1" fill="#5293b3" d="M 234.5,115.5 C 235.708,116.234 237.041,116.567 238.5,116.5C 238.216,118.415 238.549,120.081 239.5,121.5C 239.5,122.167 239.833,122.5 240.5,122.5C 240.626,131.509 240.959,140.509 241.5,149.5C 240.679,146.359 240.179,143.025 240,139.5C 239.517,140.448 239.351,141.448 239.5,142.5C 238.5,142.5 237.5,142.5 236.5,142.5C 236.167,142.5 235.833,142.5 235.5,142.5C 235.822,136.642 235.489,130.975 234.5,125.5C 234.5,122.167 234.5,118.833 234.5,115.5 Z"/></g>
<g><path style="opacity:1" fill="#7b60ad" d="M 69.5,134.5 C 66.5918,135.159 66.2584,135.993 68.5,137C 67.8333,137.667 67.1667,138.333 66.5,139C 66.8541,140.626 66.8541,142.459 66.5,144.5C 62.7751,144.537 61.4418,146.204 62.5,149.5C 60.8647,150.681 59.198,150.681 57.5,149.5C 56.8076,150.025 56.3076,150.692 56,151.5C 52.3146,147.77 47.9813,146.437 43,147.5C 42.8019,145.618 42.3019,143.952 41.5,142.5C 40.5994,140.273 38.9328,139.273 36.5,139.5C 33.5154,138.528 32.3487,136.528 33,133.5C 34.9912,132.008 37.1578,131.008 39.5,130.5C 40.4511,129.081 40.7845,127.415 40.5,125.5C 41.6948,125.322 42.8615,124.989 44,124.5C 52.0608,129.346 60.5608,132.679 69.5,134.5 Z"/></g>
<g><path style="opacity:1" fill="#688d9f" d="M 19.5,132.5 C 17.5939,133.482 15.5939,134.482 13.5,135.5C 13.6236,136.107 13.9569,136.44 14.5,136.5C 14.1961,137.15 13.8627,137.817 13.5,138.5C 14.6016,139.176 15.6016,139.842 16.5,140.5C 14.8008,140.34 13.1341,140.506 11.5,141C 12.056,141.383 12.3893,141.883 12.5,142.5C 9.26933,141.902 8.936,140.736 11.5,139C 10.4829,137.951 10.3162,136.784 11,135.5C 13.4194,133.415 16.2528,132.415 19.5,132.5 Z"/></g>
<g><path style="opacity:1" fill="#dbdfe0" d="M 22.5,135.5 C 24.1667,135.5 25.8333,135.5 27.5,135.5C 27.5,137.167 27.5,138.833 27.5,140.5C 25.1667,140.5 22.8333,140.5 20.5,140.5C 19.1667,140.5 17.8333,140.5 16.5,140.5C 15.6016,139.842 14.6016,139.176 13.5,138.5C 13.8627,137.817 14.1961,137.15 14.5,136.5C 17.1667,136.167 19.8333,135.833 22.5,135.5 Z"/></g>
<g><path style="opacity:1" fill="#868da4" d="M 22.5,135.5 C 23.9187,134.549 25.5853,134.216 27.5,134.5C 28.4682,136.607 28.8016,138.941 28.5,141.5C 25.6146,141.806 22.9479,141.473 20.5,140.5C 22.8333,140.5 25.1667,140.5 27.5,140.5C 27.5,138.833 27.5,137.167 27.5,135.5C 25.8333,135.5 24.1667,135.5 22.5,135.5 Z"/></g>
<g><path style="opacity:1" fill="#8267bb" d="M 66.5,123.5 C 75.662,124.707 84.662,126.707 93.5,129.5C 94.1667,129.333 94.8333,129.167 95.5,129C 94.8333,127.667 94.1667,126.333 93.5,125C 94.1079,124.13 94.9412,123.63 96,123.5C 103.984,125.542 111.984,125.875 120,124.5C 120.333,126.833 120.667,129.167 121,131.5C 121.757,129.685 122.59,128.019 123.5,126.5C 123.326,133.535 123.659,140.535 124.5,147.5C 123.462,153.596 120.795,154.596 116.5,150.5C 115.751,152.012 114.584,153.012 113,153.5C 106.078,149.462 98.9117,148.129 91.5,149.5C 89.0514,149.02 86.8847,148.02 85,146.5C 83.395,146.562 81.895,146.562 80.5,146.5C 75.9193,145.51 71.2526,144.843 66.5,144.5C 66.8541,142.459 66.8541,140.626 66.5,139C 67.1667,138.333 67.8333,137.667 68.5,137C 66.2584,135.993 66.5918,135.159 69.5,134.5C 71.451,134.227 72.951,134.893 74,136.5C 74.8333,135.667 75.6667,134.833 76.5,134C 75.0652,132.205 72.7318,130.705 69.5,129.5C 68.8714,127.259 67.8714,125.259 66.5,123.5 Z"/></g>
<g><path style="opacity:1" fill="#4f7bb3" d="M 16.5,140.5 C 17.8333,140.5 19.1667,140.5 20.5,140.5C 22.9479,141.473 25.6146,141.806 28.5,141.5C 30.8333,141.5 33.1667,141.5 35.5,141.5C 36.8333,141.5 38.1667,141.5 39.5,141.5C 39.5,142.5 39.5,143.5 39.5,144.5C 38.1667,144.5 36.8333,144.5 35.5,144.5C 32.9407,144.198 30.6074,144.532 28.5,145.5C 25.1501,145.665 21.8168,145.498 18.5,145C 16.1484,144.76 14.1484,143.927 12.5,142.5C 12.3893,141.883 12.056,141.383 11.5,141C 13.1341,140.506 14.8008,140.34 16.5,140.5 Z"/></g>
<g><path style="opacity:1" fill="#d0cddd" d="M 191.5,124.5 C 193.219,137.96 193.886,151.626 193.5,165.5C 192.492,152.006 191.826,138.339 191.5,124.5 Z"/></g>
<g><path style="opacity:1" fill="#9f9bb0" d="M 181.5,46.5 C 182.913,49.2186 183.58,52.2186 183.5,55.5C 185.079,90.3414 187.079,125.008 189.5,159.5C 189.667,169.685 190.333,179.685 191.5,189.5C 191.666,195.509 191.499,201.509 191,207.5C 190.768,208.737 190.268,209.737 189.5,210.5C 189.885,198.744 189.051,187.077 187,175.5C 186.667,175.833 186.333,176.167 186,176.5C 185.598,175.128 185.098,173.795 184.5,172.5C 183.463,168.727 183.463,164.727 184.5,160.5C 184.263,157.937 183.763,157.937 183,160.5C 182.833,159 182.667,157.5 182.5,156C 183.473,151.926 183.473,147.926 182.5,144C 184.373,135.288 185.207,126.455 185,117.5C 184.667,117.833 184.333,118.167 184,118.5C 183.418,94.5333 182.584,70.5333 181.5,46.5 Z"/></g>
<g><path style="opacity:1" fill="#2c2b3d" d="M 36.5,139.5 C 38.9328,139.273 40.5994,140.273 41.5,142.5C 41.634,144.292 41.3007,145.958 40.5,147.5C 37.715,148.084 36.0483,147.084 35.5,144.5C 36.8333,144.5 38.1667,144.5 39.5,144.5C 39.5,143.5 39.5,142.5 39.5,141.5C 38.1667,141.5 36.8333,141.5 35.5,141.5C 35.8333,140.833 36.1667,140.167 36.5,139.5 Z"/></g>
<g><path style="opacity:1" fill="#9fb9ba" d="M 28.5,146.5 C 28.5,146.833 28.5,147.167 28.5,147.5C 24.6814,147.414 21.0148,148.081 17.5,149.5C 16.8333,149.5 16.1667,149.5 15.5,149.5C 19.4054,147.124 23.7387,146.124 28.5,146.5 Z"/></g>
<g><path style="opacity:1" fill="#64a4d4" d="M 235.5,142.5 C 235.833,142.5 236.167,142.5 236.5,142.5C 236.5,145.833 236.5,149.167 236.5,152.5C 236.666,156.846 236.499,161.179 236,165.5C 235.528,159.81 233.195,159.143 229,163.5C 227.409,158.286 226.575,152.952 226.5,147.5C 227.161,148.718 227.828,150.051 228.5,151.5C 229.425,150.359 230.259,150.359 231,151.5C 232.101,149.606 233.434,148.939 235,149.5C 235.497,147.19 235.663,144.857 235.5,142.5 Z"/></g>
<g><path style="opacity:1" fill="#8270ca" d="M 177.5,150.5 C 178.2,154.798 178.533,159.131 178.5,163.5C 178.657,164.873 178.49,166.207 178,167.5C 177.5,166.333 176.667,165.5 175.5,165C 170.923,164.466 166.589,163.3 162.5,161.5C 157.567,163.635 153.567,162.301 150.5,157.5C 152.264,152.361 152.931,147.028 152.5,141.5C 153.117,141.389 153.617,141.056 154,140.5C 155.5,141.667 157,142.833 158.5,144C 164.098,144.901 169.432,145.901 174.5,147C 175.163,148.518 176.163,149.685 177.5,150.5 Z"/></g>
<g><path style="opacity:1" fill="#2b4f52" d="M 28.5,147.5 C 28.5,148.5 28.5,149.5 28.5,150.5C 27.209,150.263 26.209,150.596 25.5,151.5C 23.0971,151.448 20.7638,151.781 18.5,152.5C 13.7255,152.33 13.3922,151.33 17.5,149.5C 21.0148,148.081 24.6814,147.414 28.5,147.5 Z"/></g>
<g><path style="opacity:1" fill="#7463b1" d="M 41.5,142.5 C 42.3019,143.952 42.8019,145.618 43,147.5C 47.9813,146.437 52.3146,147.77 56,151.5C 56.3076,150.692 56.8076,150.025 57.5,149.5C 59.198,150.681 60.8647,150.681 62.5,149.5C 61.4418,146.204 62.7751,144.537 66.5,144.5C 71.2526,144.843 75.9193,145.51 80.5,146.5C 80.7512,148.17 81.4178,149.67 82.5,151C 81.572,151.388 80.9054,152.055 80.5,153C 82.4689,155.705 82.8022,158.538 81.5,161.5C 72.0905,164.643 63.0905,163.977 54.5,159.5C 49.6524,155.656 44.319,152.656 38.5,150.5C 37.4104,151.391 37.4104,152.391 38.5,153.5C 37.635,154.583 36.635,154.749 35.5,154C 34.5939,152.301 34.2606,150.467 34.5,148.5C 36.7354,148.795 38.7354,148.461 40.5,147.5C 41.3007,145.958 41.634,144.292 41.5,142.5 Z"/></g>
<g><path style="opacity:1" fill="#7669bc" d="M 147.5,131.5 C 148.103,135.858 149.27,140.191 151,144.5C 151.232,143.263 151.732,142.263 152.5,141.5C 152.931,147.028 152.264,152.361 150.5,157.5C 149.59,159.019 148.757,160.685 148,162.5C 144.38,165.234 141.047,167.568 138,169.5C 135.932,171.396 134.099,173.396 132.5,175.5C 131.352,176.895 130.352,176.728 129.5,175C 124.51,174.758 119.51,173.925 114.5,172.5C 113.263,172.556 112.263,173.056 111.5,174C 111.833,175 112.167,176 112.5,177C 111.975,177.692 111.308,178.192 110.5,178.5C 107.655,178.167 105.155,177.167 103,175.5C 100.4,176.593 97.7337,176.593 95,175.5C 94.1667,175.667 93.3333,175.833 92.5,176C 93.6956,176.654 93.6956,177.154 92.5,177.5C 89.2455,176.187 85.9122,175.187 82.5,174.5C 83.7353,172.227 83.4019,170.394 81.5,169C 81.8916,166.646 81.8916,164.146 81.5,161.5C 82.8022,158.538 82.4689,155.705 80.5,153C 80.9054,152.055 81.572,151.388 82.5,151C 81.4178,149.67 80.7512,148.17 80.5,146.5C 81.895,146.562 83.395,146.562 85,146.5C 86.8847,148.02 89.0514,149.02 91.5,149.5C 98.9117,148.129 106.078,149.462 113,153.5C 114.584,153.012 115.751,152.012 116.5,150.5C 120.795,154.596 123.462,153.596 124.5,147.5C 125.201,150.563 125.868,153.73 126.5,157C 128.167,157.667 129.833,157.667 131.5,157C 132.893,155.637 134.559,154.804 136.5,154.5C 140.043,155.969 143.709,156.969 147.5,157.5C 147.5,148.833 147.5,140.167 147.5,131.5 Z"/></g>
<g><path style="opacity:1" fill="#4d85af" d="M 241.5,149.5 C 242.22,155.138 242.553,160.804 242.5,166.5C 241.5,166.5 240.5,166.5 239.5,166.5C 239.167,162.5 238.833,162.5 238.5,166.5C 238.167,166.5 237.833,166.5 237.5,166.5C 237.819,161.637 237.486,156.97 236.5,152.5C 236.5,149.167 236.5,145.833 236.5,142.5C 237.5,142.5 238.5,142.5 239.5,142.5C 239.351,141.448 239.517,140.448 240,139.5C 240.179,143.025 240.679,146.359 241.5,149.5 Z"/></g>
<g><path style="opacity:1" fill="#789aac" d="M 15.5,149.5 C 16.1667,149.5 16.8333,149.5 17.5,149.5C 13.3922,151.33 13.7255,152.33 18.5,152.5C 17.2825,153.161 15.9492,153.828 14.5,154.5C 14.8627,155.183 15.1961,155.85 15.5,156.5C 14.448,156.351 13.448,156.517 12.5,157C 13.8584,157.934 15.1917,158.768 16.5,159.5C 10.0184,159.264 8.35173,156.431 11.5,151C 12.745,150.209 14.0783,149.709 15.5,149.5 Z"/></g>
<g><path style="opacity:1" fill="#d9dee2" d="M 25.5,151.5 C 26.5,151.5 27.5,151.5 28.5,151.5C 28.5,153.5 28.5,155.5 28.5,157.5C 24.1578,157.261 19.8244,156.927 15.5,156.5C 15.1961,155.85 14.8627,155.183 14.5,154.5C 15.9492,153.828 17.2825,153.161 18.5,152.5C 20.7638,151.781 23.0971,151.448 25.5,151.5 Z"/></g>
<g><path style="opacity:1" fill="#755ca4" d="M 123.5,109.5 C 123.833,109.5 124.167,109.5 124.5,109.5C 125.04,124.196 126.04,138.862 127.5,153.5C 130.199,150.964 133.032,148.631 136,146.5C 139.62,149.117 142.953,152.117 146,155.5C 146.499,150.511 146.666,145.511 146.5,140.5C 146.5,136.833 146.5,133.167 146.5,129.5C 147.338,129.842 147.672,130.508 147.5,131.5C 147.5,140.167 147.5,148.833 147.5,157.5C 143.709,156.969 140.043,155.969 136.5,154.5C 134.559,154.804 132.893,155.637 131.5,157C 129.833,157.667 128.167,157.667 126.5,157C 125.868,153.73 125.201,150.563 124.5,147.5C 123.659,140.535 123.326,133.535 123.5,126.5C 123.5,120.833 123.5,115.167 123.5,109.5 Z"/></g>
<g><path style="opacity:1" fill="#4781b1" d="M 225.5,141.5 C 225.457,150.56 226.123,159.56 227.5,168.5C 226.778,168.918 226.278,169.584 226,170.5C 225.333,169.167 224.667,167.833 224,166.5C 223.502,169.482 223.335,172.482 223.5,175.5C 222.251,164.354 221.584,153.02 221.5,141.5C 221.312,139.897 221.812,138.563 223,137.5C 223.608,139.066 224.442,140.4 225.5,141.5 Z"/></g>
<g><path style="opacity:1" fill="#2c3248" d="M 36.5,157.5 C 41.9865,155.49 43.6531,157.323 41.5,163C 40.2068,163.49 38.8734,163.657 37.5,163.5C 36.8902,162.609 36.5569,161.609 36.5,160.5C 41.8333,159.5 41.8333,158.5 36.5,157.5 Z"/></g>
<g><path style="opacity:1" fill="#6d5f95" d="M 188.5,120.5 C 188.833,120.5 189.167,120.5 189.5,120.5C 190.185,138.852 191.185,157.185 192.5,175.5C 191.514,179.97 191.181,184.637 191.5,189.5C 190.333,179.685 189.667,169.685 189.5,159.5C 189.318,146.495 188.985,133.495 188.5,120.5 Z"/></g>
<g><path style="opacity:1" fill="#507ab1" d="M 25.5,151.5 C 26.209,150.596 27.209,150.263 28.5,150.5C 29.4682,152.607 29.8016,154.941 29.5,157.5C 31.8333,157.5 34.1667,157.5 36.5,157.5C 41.8333,158.5 41.8333,159.5 36.5,160.5C 34.1667,160.5 31.8333,160.5 29.5,160.5C 25.5,160.5 21.5,160.5 17.5,160.5C 16.8333,160.5 16.5,160.167 16.5,159.5C 15.1917,158.768 13.8584,157.934 12.5,157C 13.448,156.517 14.448,156.351 15.5,156.5C 19.8244,156.927 24.1578,157.261 28.5,157.5C 28.5,155.5 28.5,153.5 28.5,151.5C 27.5,151.5 26.5,151.5 25.5,151.5 Z"/></g>
<g><path style="opacity:1" fill="#8b80b4" d="M 189.5,105.5 C 189.833,105.5 190.167,105.5 190.5,105.5C 190.476,111.857 190.81,118.19 191.5,124.5C 191.826,138.339 192.492,152.006 193.5,165.5C 194.734,179.987 194.734,194.32 193.5,208.5C 193.278,197.496 192.944,186.496 192.5,175.5C 191.185,157.185 190.185,138.852 189.5,120.5C 189.5,115.5 189.5,110.5 189.5,105.5 Z"/></g>
<g><path style="opacity:1" fill="#c1cbd7" d="M 220.5,141.5 C 220.833,141.5 221.167,141.5 221.5,141.5C 221.584,153.02 222.251,164.354 223.5,175.5C 223.833,182.833 224.167,190.167 224.5,197.5C 223.732,196.737 223.232,195.737 223,194.5C 221.558,176.859 220.724,159.192 220.5,141.5 Z"/></g>
<g><path style="opacity:1" fill="#a8b9ce" d="M 17.5,160.5 C 21.5,160.5 25.5,160.5 29.5,160.5C 29.5,161.5 29.5,162.5 29.5,163.5C 28.5,163.5 27.5,163.5 26.5,163.5C 26.9175,162.778 27.5842,162.278 28.5,162C 24.6437,161.823 20.977,161.323 17.5,160.5 Z"/></g>
<g><path style="opacity:1" fill="#675fa8" d="M 35.5,144.5 C 36.0483,147.084 37.715,148.084 40.5,147.5C 38.7354,148.461 36.7354,148.795 34.5,148.5C 34.2606,150.467 34.5939,152.301 35.5,154C 36.635,154.749 37.635,154.583 38.5,153.5C 37.4104,152.391 37.4104,151.391 38.5,150.5C 44.319,152.656 49.6524,155.656 54.5,159.5C 54.335,162.85 54.5017,166.183 55,169.5C 56.6203,172.575 58.1203,175.742 59.5,179C 59.2568,179.902 58.9234,180.735 58.5,181.5C 54.4643,181.647 51.1309,180.147 48.5,177C 47.2161,176.316 46.0495,176.483 45,177.5C 44.7216,176.584 44.2216,175.918 43.5,175.5C 42.8784,172.224 40.8784,170.891 37.5,171.5C 33.6504,170.364 31.9838,167.697 32.5,163.5C 34.1667,163.5 35.8333,163.5 37.5,163.5C 38.8734,163.657 40.2068,163.49 41.5,163C 43.6531,157.323 41.9865,155.49 36.5,157.5C 34.1667,157.5 31.8333,157.5 29.5,157.5C 29.8016,154.941 29.4682,152.607 28.5,150.5C 28.5,149.5 28.5,148.5 28.5,147.5C 28.5,147.167 28.5,146.833 28.5,146.5C 28.5,146.167 28.5,145.833 28.5,145.5C 30.6074,144.532 32.9407,144.198 35.5,144.5 Z"/></g>
<g><path style="opacity:1" fill="#5b5492" d="M 29.5,160.5 C 31.8333,160.5 34.1667,160.5 36.5,160.5C 36.5569,161.609 36.8902,162.609 37.5,163.5C 35.8333,163.5 34.1667,163.5 32.5,163.5C 31.9838,167.697 33.6504,170.364 37.5,171.5C 37.5,171.833 37.5,172.167 37.5,172.5C 35.1667,172.5 32.8333,172.5 30.5,172.5C 30.7678,170.901 30.4345,169.568 29.5,168.5C 29.5,168.167 29.5,167.833 29.5,167.5C 29.5,166.167 29.5,164.833 29.5,163.5C 29.5,162.5 29.5,161.5 29.5,160.5 Z"/></g>
<g><path style="opacity:1" fill="#2c4f51" d="M 26.5,163.5 C 27.5,163.5 28.5,163.5 29.5,163.5C 29.5,164.833 29.5,166.167 29.5,167.5C 26.1194,167.46 22.7861,167.793 19.5,168.5C 16.4331,168.879 15.4331,167.879 16.5,165.5C 19.6348,163.977 22.9682,163.31 26.5,163.5 Z"/></g>
<g><path style="opacity:1" fill="#70929f" d="M 16.5,165.5 C 15.4331,167.879 16.4331,168.879 19.5,168.5C 17.7809,169.022 16.4475,170.022 15.5,171.5C 13.901,171.232 12.5676,171.566 11.5,172.5C 10.4017,171.399 10.235,170.066 11,168.5C 12.7409,167.242 14.5742,166.242 16.5,165.5 Z"/></g>
<g><path style="opacity:1" fill="#dde0e3" d="M 29.5,167.5 C 29.5,167.833 29.5,168.167 29.5,168.5C 29.5,169.833 29.5,171.167 29.5,172.5C 24.737,172.774 20.0704,172.441 15.5,171.5C 16.4475,170.022 17.7809,169.022 19.5,168.5C 22.7861,167.793 26.1194,167.46 29.5,167.5 Z"/></g>
<g><path style="opacity:1" fill="#6964b2" d="M 54.5,159.5 C 63.0905,163.977 72.0905,164.643 81.5,161.5C 81.8916,164.146 81.8916,166.646 81.5,169C 83.4019,170.394 83.7353,172.227 82.5,174.5C 81.9033,174.735 81.5699,175.235 81.5,176C 83.6983,178.429 85.0316,181.262 85.5,184.5C 77.3797,182.708 69.2131,181.375 61,180.5C 60.6582,182.619 59.8249,182.953 58.5,181.5C 58.9234,180.735 59.2568,179.902 59.5,179C 58.1203,175.742 56.6203,172.575 55,169.5C 54.5017,166.183 54.335,162.85 54.5,159.5 Z"/></g>
<g><path style="opacity:1" fill="#6199d1" d="M 225.5,140.5 C 226.468,142.607 226.802,144.941 226.5,147.5C 226.575,152.952 227.409,158.286 229,163.5C 233.195,159.143 235.528,159.81 236,165.5C 236.499,161.179 236.666,156.846 236.5,152.5C 237.486,156.97 237.819,161.637 237.5,166.5C 237.494,171.215 236.994,175.882 236,180.5C 233.843,182.495 231.343,183.828 228.5,184.5C 228.167,179.167 227.833,173.833 227.5,168.5C 226.123,159.56 225.457,150.56 225.5,141.5C 225.5,141.167 225.5,140.833 225.5,140.5 Z"/></g>
<g><path style="opacity:1" fill="#8c7dc6" d="M 176.5,116.5 C 177.884,129.829 179.218,143.162 180.5,156.5C 180.5,158.167 180.5,159.833 180.5,161.5C 180.5,167.833 180.5,174.167 180.5,180.5C 180.167,180.5 179.833,180.5 179.5,180.5C 179.822,174.642 179.489,168.975 178.5,163.5C 178.533,159.131 178.2,154.798 177.5,150.5C 177.632,141.809 177.299,133.142 176.5,124.5C 176.5,121.833 176.5,119.167 176.5,116.5 Z"/></g>
<g><path style="opacity:1" fill="#5b80ac" d="M 29.5,168.5 C 30.4345,169.568 30.7678,170.901 30.5,172.5C 32.8333,172.5 35.1667,172.5 37.5,172.5C 38.8083,173.232 40.1416,174.066 41.5,175C 40.9056,175.464 40.2389,175.631 39.5,175.5C 35.3269,175.309 31.1602,174.976 27,174.5C 24.7047,174.547 22.8714,175.213 21.5,176.5C 17.5698,176.365 14.2365,175.032 11.5,172.5C 12.5676,171.566 13.901,171.232 15.5,171.5C 20.0704,172.441 24.737,172.774 29.5,172.5C 29.5,171.167 29.5,169.833 29.5,168.5 Z"/></g>
<g><path style="opacity:1" fill="#4370af" d="M 39.5,175.5 C 38.791,176.404 37.791,176.737 36.5,176.5C 34.5,176.5 32.5,176.5 30.5,176.5C 27.5,176.5 24.5,176.5 21.5,176.5C 22.8714,175.213 24.7047,174.547 27,174.5C 31.1602,174.976 35.3269,175.309 39.5,175.5 Z"/></g>
<g><path style="opacity:1" fill="#96accc" d="M 21.5,176.5 C 24.5,176.5 27.5,176.5 30.5,176.5C 30.5,177.5 30.5,178.5 30.5,179.5C 29.5,179.5 28.5,179.5 27.5,179.5C 27.9175,178.778 28.5842,178.278 29.5,178C 26.6353,177.817 23.9686,177.317 21.5,176.5 Z"/></g>
<g><path style="opacity:1" fill="#4975ad" d="M 242.5,166.5 C 243.763,179.139 244.263,191.806 244,204.5C 243.283,205.044 242.783,205.711 242.5,206.5C 241.833,206.5 241.167,206.5 240.5,206.5C 238.827,193.372 238.16,180.038 238.5,166.5C 238.833,162.5 239.167,162.5 239.5,166.5C 240.5,166.5 241.5,166.5 242.5,166.5 Z"/></g>
<g><path style="opacity:1" fill="#2a2d45" d="M 37.5,171.5 C 40.8784,170.891 42.8784,172.224 43.5,175.5C 43.6162,178.91 41.9496,180.244 38.5,179.5C 37.8333,178.5 37.1667,177.5 36.5,176.5C 37.791,176.737 38.791,176.404 39.5,175.5C 40.2389,175.631 40.9056,175.464 41.5,175C 40.1416,174.066 38.8083,173.232 37.5,172.5C 37.5,172.167 37.5,171.833 37.5,171.5 Z"/></g>
<g><path style="opacity:1" fill="#686bbc" d="M 132.5,175.5 C 132.737,178.884 133.07,182.218 133.5,185.5C 133.17,188.172 132.837,190.838 132.5,193.5C 127.233,191.885 122.066,190.885 117,190.5C 114.739,190.439 112.739,191.106 111,192.5C 110.333,191.833 109.667,191.167 109,190.5C 106.149,191.244 103.483,191.244 101,190.5C 100.147,188.875 99.1475,188.542 98,189.5C 93.6795,188.141 89.5128,186.475 85.5,184.5C 85.0316,181.262 83.6983,178.429 81.5,176C 81.5699,175.235 81.9033,174.735 82.5,174.5C 85.9122,175.187 89.2455,176.187 92.5,177.5C 93.6956,177.154 93.6956,176.654 92.5,176C 93.3333,175.833 94.1667,175.667 95,175.5C 97.7337,176.593 100.4,176.593 103,175.5C 105.155,177.167 107.655,178.167 110.5,178.5C 111.308,178.192 111.975,177.692 112.5,177C 112.167,176 111.833,175 111.5,174C 112.263,173.056 113.263,172.556 114.5,172.5C 119.51,173.925 124.51,174.758 129.5,175C 130.352,176.728 131.352,176.895 132.5,175.5 Z"/></g>
<g><path style="opacity:1" fill="#7170c8" d="M 150.5,157.5 C 153.567,162.301 157.567,163.635 162.5,161.5C 166.589,163.3 170.923,164.466 175.5,165C 176.667,165.5 177.5,166.333 178,167.5C 178.49,166.207 178.657,164.873 178.5,163.5C 179.489,168.975 179.822,174.642 179.5,180.5C 179.666,184.514 179.499,188.514 179,192.5C 175.237,190.339 171.404,189.006 167.5,188.5C 166.707,188.931 165.873,189.265 165,189.5C 160.844,188.797 156.677,188.131 152.5,187.5C 151.353,187.818 150.519,188.484 150,189.5C 145.154,187.912 140.32,186.246 135.5,184.5C 134.817,184.863 134.15,185.196 133.5,185.5C 133.07,182.218 132.737,178.884 132.5,175.5C 134.099,173.396 135.932,171.396 138,169.5C 141.047,167.568 144.38,165.234 148,162.5C 148.757,160.685 149.59,159.019 150.5,157.5 Z"/></g>
<g><path style="opacity:1" fill="#52548f" d="M 30.5,176.5 C 32.5,176.5 34.5,176.5 36.5,176.5C 37.1667,177.5 37.8333,178.5 38.5,179.5C 35.8732,179.293 34.2065,180.46 33.5,183C 34.3988,185.401 36.0655,186.901 38.5,187.5C 38.1667,188.167 37.8333,188.833 37.5,189.5C 35.1667,189.5 32.8333,189.5 30.5,189.5C 30.5,187.5 30.5,185.5 30.5,183.5C 30.5,182.167 30.5,180.833 30.5,179.5C 30.5,178.5 30.5,177.5 30.5,176.5 Z"/></g>
<g><path style="opacity:1" fill="#2d4f52" d="M 25.5,179.5 C 26.1667,179.5 26.8333,179.5 27.5,179.5C 28.5,179.5 29.5,179.5 30.5,179.5C 30.5,180.833 30.5,182.167 30.5,183.5C 25.8075,183.54 21.1408,183.873 16.5,184.5C 19.3388,182.58 22.3388,180.913 25.5,179.5 Z"/></g>
<g><path style="opacity:1" fill="#416fae" d="M 227.5,168.5 C 227.833,173.833 228.167,179.167 228.5,184.5C 228.481,191.85 229.481,199.017 231.5,206C 229.866,206.494 228.199,206.66 226.5,206.5C 226.204,204.597 225.537,202.93 224.5,201.5C 224.5,200.167 224.5,198.833 224.5,197.5C 224.167,190.167 223.833,182.833 223.5,175.5C 223.335,172.482 223.502,169.482 224,166.5C 224.667,167.833 225.333,169.167 226,170.5C 226.278,169.584 226.778,168.918 227.5,168.5 Z"/></g>
<g><path style="opacity:1" fill="#d2d7db" d="M 30.5,183.5 C 30.5,185.5 30.5,187.5 30.5,189.5C 26.1434,189.414 21.81,189.08 17.5,188.5C 16.7659,187.292 16.4326,185.959 16.5,184.5C 21.1408,183.873 25.8075,183.54 30.5,183.5 Z"/></g>
<g><path style="opacity:1" fill="#6c93a6" d="M 25.5,179.5 C 22.3388,180.913 19.3388,182.58 16.5,184.5C 16.4326,185.959 16.7659,187.292 17.5,188.5C 15.901,188.232 14.5676,188.566 13.5,189.5C 10.8333,186.919 11.1666,184.419 14.5,182C 18.1117,180.85 21.7783,180.017 25.5,179.5 Z"/></g>
<g><path style="opacity:1" fill="#4976ae" d="M 17.5,188.5 C 21.81,189.08 26.1434,189.414 30.5,189.5C 32.8333,189.5 35.1667,189.5 37.5,189.5C 44.1667,190.5 44.1667,191.5 37.5,192.5C 35.5,192.5 33.5,192.5 31.5,192.5C 31.5,193.5 31.5,194.5 31.5,195.5C 31.1667,195.5 30.8333,195.5 30.5,195.5C 30.5,194.833 30.5,194.167 30.5,193.5C 25.2605,192.65 19.9272,191.65 14.5,190.5C 13.8333,190.5 13.5,190.167 13.5,189.5C 14.5676,188.566 15.901,188.232 17.5,188.5 Z"/></g>
<g><path style="opacity:1" fill="#5c64b0" d="M 43.5,175.5 C 44.2216,175.918 44.7216,176.584 45,177.5C 46.0495,176.483 47.2161,176.316 48.5,177C 51.1309,180.147 54.4643,181.647 58.5,181.5C 59.8249,182.953 60.6582,182.619 61,180.5C 69.2131,181.375 77.3797,182.708 85.5,184.5C 86.1827,190.861 89.1827,195.861 94.5,199.5C 93.0977,200.842 93.4311,201.676 95.5,202C 94.8333,202.333 94.1667,202.667 93.5,203C 94.7101,204.039 95.7101,205.206 96.5,206.5C 95.8826,206.611 95.3826,206.944 95,207.5C 82.4805,204.519 70.4805,200.852 59,196.5C 58.228,196.645 57.5613,196.978 57,197.5C 52.895,196.653 48.7283,195.987 44.5,195.5C 44.5,195.167 44.5,194.833 44.5,194.5C 45.3731,189.706 43.3731,187.373 38.5,187.5C 36.0655,186.901 34.3988,185.401 33.5,183C 34.2065,180.46 35.8732,179.293 38.5,179.5C 41.9496,180.244 43.6162,178.91 43.5,175.5 Z"/></g>
<g><path style="opacity:1" fill="#608bce" d="M 237.5,166.5 C 237.833,166.5 238.167,166.5 238.5,166.5C 238.16,180.038 238.827,193.372 240.5,206.5C 235.833,207.833 231.167,207.833 226.5,206.5C 228.199,206.66 229.866,206.494 231.5,206C 229.481,199.017 228.481,191.85 228.5,184.5C 231.343,183.828 233.843,182.495 236,180.5C 236.994,175.882 237.494,171.215 237.5,166.5 Z"/></g>
<g><path style="opacity:1" fill="#858abd" d="M 180.5,161.5 C 182.119,175.133 183.119,188.966 183.5,203C 183.674,207.442 183.007,211.609 181.5,215.5C 181.635,203.815 181.302,192.148 180.5,180.5C 180.5,174.167 180.5,167.833 180.5,161.5 Z"/></g>
<g><path style="opacity:1" fill="#85a1c6" d="M 14.5,190.5 C 19.9272,191.65 25.2605,192.65 30.5,193.5C 24.7429,194.068 19.4096,193.068 14.5,190.5 Z"/></g>
<g><path style="opacity:1" fill="#292d41" d="M 38.5,187.5 C 43.3731,187.373 45.3731,189.706 44.5,194.5C 42.5976,195.511 40.5976,195.678 38.5,195C 37.7476,194.329 37.4142,193.496 37.5,192.5C 44.1667,191.5 44.1667,190.5 37.5,189.5C 37.8333,188.833 38.1667,188.167 38.5,187.5 Z"/></g>
<g><path style="opacity:1" fill="#5d6ab9" d="M 85.5,184.5 C 89.5128,186.475 93.6795,188.141 98,189.5C 99.1475,188.542 100.147,188.875 101,190.5C 103.483,191.244 106.149,191.244 109,190.5C 109.667,191.167 110.333,191.833 111,192.5C 112.739,191.106 114.739,190.439 117,190.5C 122.066,190.885 127.233,191.885 132.5,193.5C 133.136,196.106 133.136,198.606 132.5,201C 133.823,201.816 134.489,202.983 134.5,204.5C 132.441,205.253 130.607,204.586 129,202.5C 124.766,202.968 120.433,202.968 116,202.5C 111.786,203.042 111.619,204.542 115.5,207C 114.944,207.383 114.611,207.883 114.5,208.5C 112.24,208.194 109.74,207.528 107,206.5C 105.674,206.755 104.674,207.422 104,208.5C 101.564,207.645 99.0644,206.979 96.5,206.5C 95.7101,205.206 94.7101,204.039 93.5,203C 94.1667,202.667 94.8333,202.333 95.5,202C 93.4311,201.676 93.0977,200.842 94.5,199.5C 89.1827,195.861 86.1827,190.861 85.5,184.5 Z"/></g>
<g><path style="opacity:1" fill="#375d62" d="M 30.5,195.5 C 30.8333,195.5 31.1667,195.5 31.5,195.5C 31.5,196.833 31.5,198.167 31.5,199.5C 27.7657,199.323 24.0991,199.656 20.5,200.5C 17.4331,200.879 16.4331,199.879 17.5,197.5C 21.6737,195.936 26.007,195.269 30.5,195.5 Z"/></g>
<g><path style="opacity:1" fill="#6371c7" d="M 179.5,180.5 C 179.833,180.5 180.167,180.5 180.5,180.5C 181.302,192.148 181.635,203.815 181.5,215.5C 181.672,216.492 181.338,217.158 180.5,217.5C 180.5,215.5 180.5,213.5 180.5,211.5C 173.294,210.345 165.961,208.678 158.5,206.5C 150.308,207.937 142.308,207.27 134.5,204.5C 134.489,202.983 133.823,201.816 132.5,201C 133.136,198.606 133.136,196.106 132.5,193.5C 132.837,190.838 133.17,188.172 133.5,185.5C 134.15,185.196 134.817,184.863 135.5,184.5C 140.32,186.246 145.154,187.912 150,189.5C 150.519,188.484 151.353,187.818 152.5,187.5C 156.677,188.131 160.844,188.797 165,189.5C 165.873,189.265 166.707,188.931 167.5,188.5C 171.404,189.006 175.237,190.339 179,192.5C 179.499,188.514 179.666,184.514 179.5,180.5 Z"/></g>
<g><path style="opacity:1" fill="#d7dce0" d="M 31.5,199.5 C 31.5,201.5 31.5,203.5 31.5,205.5C 27.1578,205.261 22.8244,204.927 18.5,204.5C 18.1961,203.85 17.8627,203.183 17.5,202.5C 18.6016,201.824 19.6016,201.158 20.5,200.5C 24.0991,199.656 27.7657,199.323 31.5,199.5 Z"/></g>
<g><path style="opacity:1" fill="#7a9eb2" d="M 17.5,197.5 C 16.4331,199.879 17.4331,200.879 20.5,200.5C 19.6016,201.158 18.6016,201.824 17.5,202.5C 17.8627,203.183 18.1961,203.85 18.5,204.5C 16.5853,204.216 14.9187,204.549 13.5,205.5C 11.7274,204.686 11.2274,203.352 12,201.5C 13.451,199.536 15.2843,198.203 17.5,197.5 Z"/></g>
<g><path style="opacity:1" fill="#4e7aad" d="M 18.5,204.5 C 22.8244,204.927 27.1578,205.261 31.5,205.5C 34.1667,205.5 36.8333,205.5 39.5,205.5C 41.1033,205.312 42.4366,205.812 43.5,207C 42.0953,208.269 40.4286,208.769 38.5,208.5C 36.5,208.5 34.5,208.5 32.5,208.5C 27.4889,208.666 22.4889,208.499 17.5,208C 15.9336,207.392 14.6002,206.558 13.5,205.5C 14.9187,204.549 16.5853,204.216 18.5,204.5 Z"/></g>
<g><path style="opacity:1" fill="#282e41" d="M 39.5,205.5 C 43.8497,204.006 45.683,205.672 45,210.5C 43.2739,211.576 41.4406,211.743 39.5,211C 38.7476,210.329 38.4142,209.496 38.5,208.5C 40.4286,208.769 42.0953,208.269 43.5,207C 42.4366,205.812 41.1033,205.312 39.5,205.5 Z"/></g>
<g><path style="opacity:1" fill="#5065b0" d="M 44.5,195.5 C 48.7283,195.987 52.895,196.653 57,197.5C 57.5613,196.978 58.228,196.645 59,196.5C 70.4805,200.852 82.4805,204.519 95,207.5C 95.3826,206.944 95.8826,206.611 96.5,206.5C 97.7401,207.973 98.7401,209.64 99.5,211.5C 98.4798,213.432 98.3131,215.432 99,217.5C 100.445,220.09 101.612,222.757 102.5,225.5C 99.2521,225.099 96.0854,224.432 93,223.5C 88.6235,224.355 84.1235,224.689 79.5,224.5C 75.2207,223.726 70.8874,223.226 66.5,223C 62.4175,221.313 58.0842,219.479 53.5,217.5C 52.207,216.158 51.3736,214.491 51,212.5C 50.6667,212.833 50.3333,213.167 50,213.5C 49.6124,210.151 49.7791,206.817 50.5,203.5C 43.1184,204.064 41.7851,202.231 46.5,198C 45.244,197.583 44.5774,196.75 44.5,195.5 Z"/></g>
<g><path style="opacity:1" fill="#525f96" d="M 192.5,175.5 C 192.944,186.496 193.278,197.496 193.5,208.5C 192.55,218.09 187.883,225.09 179.5,229.5C 178.957,229.44 178.624,229.107 178.5,228.5C 179.193,227.482 179.859,226.482 180.5,225.5C 184.377,222.293 187.044,218.293 188.5,213.5C 189.404,212.791 189.737,211.791 189.5,210.5C 190.268,209.737 190.768,208.737 191,207.5C 191.499,201.509 191.666,195.509 191.5,189.5C 191.181,184.637 191.514,179.97 192.5,175.5 Z"/></g>
<g><path style="opacity:1" fill="#39646b" d="M 32.5,211.5 C 32.5,212.833 32.5,214.167 32.5,215.5C 32.1667,215.5 31.8333,215.5 31.5,215.5C 28.1194,215.46 24.7861,215.793 21.5,216.5C 18.7524,216.598 18.0857,215.598 19.5,213.5C 23.6737,211.936 28.007,211.269 32.5,211.5 Z"/></g>
<g><path style="opacity:1" fill="#ece8e6" d="M 188.5,213.5 C 186.956,213.703 185.622,214.37 184.5,215.5C 183.432,212.213 184.765,210.546 188.5,210.5C 188.5,211.5 188.5,212.5 188.5,213.5 Z"/></g>
<g><path style="opacity:1" fill="#a9a6c4" d="M 224.5,201.5 C 225.537,202.93 226.204,204.597 226.5,206.5C 231.167,207.833 235.833,207.833 240.5,206.5C 241.167,206.5 241.833,206.5 242.5,206.5C 240.7,212.858 239.366,219.191 238.5,225.5C 237.448,223.744 235.781,223.077 233.5,223.5C 231.472,218.241 228.972,213.241 226,208.5C 225.023,206.26 224.523,203.927 224.5,201.5 Z"/></g>
<g><path style="opacity:1" fill="#dae0e3" d="M 31.5,215.5 C 31.5,217.167 31.5,218.833 31.5,220.5C 26.737,220.774 22.0704,220.441 17.5,219.5C 18.4475,218.022 19.7809,217.022 21.5,216.5C 24.7861,215.793 28.1194,215.46 31.5,215.5 Z"/></g>
<g><path style="opacity:1" fill="#566fc2" d="M 134.5,204.5 C 142.308,207.27 150.308,207.937 158.5,206.5C 165.961,208.678 173.294,210.345 180.5,211.5C 180.5,213.5 180.5,215.5 180.5,217.5C 180.5,218.167 180.5,218.833 180.5,219.5C 179.566,222.617 178.233,225.617 176.5,228.5C 175.374,227.286 174.041,226.286 172.5,225.5C 171.353,225.818 170.519,226.484 170,227.5C 166.2,226.801 162.367,226.135 158.5,225.5C 157.393,226.022 156.226,226.355 155,226.5C 150.978,225.058 146.811,224.225 142.5,224C 139.789,223.227 137.289,222.06 135,220.5C 134.228,220.645 133.561,220.978 133,221.5C 130.591,218.959 127.924,217.626 125,217.5C 123.467,217.944 121.967,218.277 120.5,218.5C 117.326,215.428 115.326,212.094 114.5,208.5C 114.611,207.883 114.944,207.383 115.5,207C 111.619,204.542 111.786,203.042 116,202.5C 120.433,202.968 124.766,202.968 129,202.5C 130.607,204.586 132.441,205.253 134.5,204.5 Z"/></g>
<g><path style="opacity:1" fill="#7094a3" d="M 19.5,213.5 C 18.0857,215.598 18.7524,216.598 21.5,216.5C 19.7809,217.022 18.4475,218.022 17.5,219.5C 15.9731,219.427 14.9731,220.094 14.5,221.5C 12.7274,220.686 12.2274,219.352 13,217.5C 14.6379,215.266 16.8045,213.933 19.5,213.5 Z"/></g>
<g><path style="opacity:1" fill="#4f6fbe" d="M 96.5,206.5 C 99.0644,206.979 101.564,207.645 104,208.5C 104.674,207.422 105.674,206.755 107,206.5C 109.74,207.528 112.24,208.194 114.5,208.5C 115.326,212.094 117.326,215.428 120.5,218.5C 121.967,218.277 123.467,217.944 125,217.5C 127.924,217.626 130.591,218.959 133,221.5C 133.561,220.978 134.228,220.645 135,220.5C 137.289,222.06 139.789,223.227 142.5,224C 146.811,224.225 150.978,225.058 155,226.5C 156.226,226.355 157.393,226.022 158.5,225.5C 162.367,226.135 166.2,226.801 170,227.5C 170.519,226.484 171.353,225.818 172.5,225.5C 174.041,226.286 175.374,227.286 176.5,228.5C 175.89,229.391 175.557,230.391 175.5,231.5C 171.489,235.331 166.822,238.164 161.5,240C 139.949,240.868 118.615,240.035 97.5,237.5C 104.175,237.666 110.842,237.5 117.5,237C 116.833,236.667 116.167,236.333 115.5,236C 116.769,233.861 116.769,231.695 115.5,229.5C 113.259,228.968 111.759,227.635 111,225.5C 110.085,226.328 109.419,227.328 109,228.5C 106.625,227.871 104.459,226.871 102.5,225.5C 101.612,222.757 100.445,220.09 99,217.5C 98.3131,215.432 98.4798,213.432 99.5,211.5C 98.7401,209.64 97.7401,207.973 96.5,206.5 Z"/></g>
<g><path style="opacity:1" fill="#597faf" d="M 31.5,215.5 C 31.8333,215.5 32.1667,215.5 32.5,215.5C 32.5,217.5 32.5,219.5 32.5,221.5C 35.1667,221.5 37.8333,221.5 40.5,221.5C 42.9812,222.86 42.6478,223.86 39.5,224.5C 37.5,224.5 35.5,224.5 33.5,224.5C 33.5,227.5 33.5,230.5 33.5,233.5C 32.5269,231.052 32.1936,228.385 32.5,225.5C 26.0832,225.818 20.0832,224.484 14.5,221.5C 14.9731,220.094 15.9731,219.427 17.5,219.5C 22.0704,220.441 26.737,220.774 31.5,220.5C 31.5,218.833 31.5,217.167 31.5,215.5 Z"/></g>
<g><path style="opacity:1" fill="#4867b1" d="M 53.5,217.5 C 58.0842,219.479 62.4175,221.313 66.5,223C 70.8874,223.226 75.2207,223.726 79.5,224.5C 84.1235,224.689 88.6235,224.355 93,223.5C 96.0854,224.432 99.2521,225.099 102.5,225.5C 104.459,226.871 106.625,227.871 109,228.5C 109.419,227.328 110.085,226.328 111,225.5C 111.759,227.635 113.259,228.968 115.5,229.5C 116.769,231.695 116.769,233.861 115.5,236C 116.167,236.333 116.833,236.667 117.5,237C 110.842,237.5 104.175,237.666 97.5,237.5C 85.4407,237.418 73.4407,236.751 61.5,235.5C 58.2239,234.717 54.8906,233.717 51.5,232.5C 52.8333,231.167 54.1667,229.833 55.5,228.5C 54.8321,224.803 54.1654,221.137 53.5,217.5 Z"/></g>
<g><path style="opacity:1" fill="#cf779d" d="M 233.5,223.5 C 235.781,223.077 237.448,223.744 238.5,225.5C 237.989,227.195 237.322,228.861 236.5,230.5C 235.217,228.27 234.217,225.937 233.5,223.5 Z"/></g>
<g><path style="opacity:1" fill="#475fa1" d="M 37.5,192.5 C 37.4142,193.496 37.7476,194.329 38.5,195C 40.5976,195.678 42.5976,195.511 44.5,194.5C 44.5,194.833 44.5,195.167 44.5,195.5C 44.5774,196.75 45.244,197.583 46.5,198C 41.7851,202.231 43.1184,204.064 50.5,203.5C 49.7791,206.817 49.6124,210.151 50,213.5C 50.3333,213.167 50.6667,212.833 51,212.5C 51.3736,214.491 52.207,216.158 53.5,217.5C 54.1654,221.137 54.8321,224.803 55.5,228.5C 54.1667,229.833 52.8333,231.167 51.5,232.5C 54.8906,233.717 58.2239,234.717 61.5,235.5C 51.9938,235.143 42.6605,234.476 33.5,233.5C 33.5,230.5 33.5,227.5 33.5,224.5C 35.5,224.5 37.5,224.5 39.5,224.5C 39.4142,225.496 39.7476,226.329 40.5,227C 47.1617,227.404 48.1617,225.071 43.5,220C 41.8425,219.275 40.8425,219.775 40.5,221.5C 37.8333,221.5 35.1667,221.5 32.5,221.5C 32.5,219.5 32.5,217.5 32.5,215.5C 32.5,214.167 32.5,212.833 32.5,211.5C 32.5,210.5 32.5,209.5 32.5,208.5C 34.5,208.5 36.5,208.5 38.5,208.5C 38.4142,209.496 38.7476,210.329 39.5,211C 41.4406,211.743 43.2739,211.576 45,210.5C 45.683,205.672 43.8497,204.006 39.5,205.5C 36.8333,205.5 34.1667,205.5 31.5,205.5C 31.5,203.5 31.5,201.5 31.5,199.5C 31.5,198.167 31.5,196.833 31.5,195.5C 31.5,194.5 31.5,193.5 31.5,192.5C 33.5,192.5 35.5,192.5 37.5,192.5 Z"/></g>
<g><path style="opacity:1" fill="#6e85ba" d="M 180.5,219.5 C 180.5,221.5 180.5,223.5 180.5,225.5C 179.859,226.482 179.193,227.482 178.5,228.5C 178.624,229.107 178.957,229.44 179.5,229.5C 178.486,230.674 177.153,231.34 175.5,231.5C 175.557,230.391 175.89,229.391 176.5,228.5C 178.233,225.617 179.566,222.617 180.5,219.5 Z"/></g>
<g><path style="opacity:1" fill="#27334b" d="M 39.5,224.5 C 42.6478,223.86 42.9812,222.86 40.5,221.5C 40.8425,219.775 41.8425,219.275 43.5,220C 48.1617,225.071 47.1617,227.404 40.5,227C 39.7476,226.329 39.4142,225.496 39.5,224.5 Z"/></g>
</svg>
